P2
# pixels restored
100 100
255
183
183
183
183
184
184
184
184
185
185
186
186
186
187
187
188
188
189
189
189
189
190
190
190
191
192
193
193
194
194
195
195
196
194
191
186
164
140
184
184
186
178
153
119
110
126
137
143
145
133
127
132
122
134
145
147
153
175
199
201
200
201
201
200
200
199
199
199
200
199
200
199
199
200
200
200
200
200
201
201
201
201
201
201
201
200
200
200
200
200
200
200
200
200
200
200
200
200
200
199
183
183
183
183
184
184
184
184
185
185
185
186
187
187
188
188
188
189
189
189
189
189
190
191
192
192
192
193
194
195
196
196
196
196
185
168
136
140
175
172
166
136
121
105
104
115
105
116
112
107
104
105
102
111
131
135
132
137
155
185
193
190
200
200
199
199
199
199
199
199
200
200
199
200
200
200
201
200
200
201
201
201
201
201
201
201
200
200
200
200
200
200
200
200
200
200
200
200
199
199
182
183
183
183
184
184
184
184
184
185
186
186
186
186
187
188
188
188
189
190
190
190
191
191
192
193
193
194
194
195
196
194
196
189
179
168
121
129
125
102
97
81
79
84
88
93
84
78
79
81
79
81
70
79
81
111
106
111
126
144
171
168
192
199
199
200
199
199
199
199
199
200
200
200
200
200
200
200
200
201
201
201
201
201
201
201
201
201
200
200
200
200
200
200
200
200
200
200
200
199
182
182
183
183
183
184
184
184
185
185
185
186
186
186
187
188
188
188
189
189
190
191
191
191
192
193
193
192
195
196
196
194
194
178
161
135
111
101
94
81
74
71
70
65
71
85
74
56
48
59
65
71
67
74
74
68
71
78
93
92
106
122
150
178
185
200
199
199
200
199
199
200
200
200
200
201
200
201
200
201
201
201
201
201
201
201
201
201
201
200
200
200
200
200
200
200
200
200
200
200
182
182
183
182
183
183
184
184
184
185
185
185
186
187
187
188
188
188
189
189
190
191
191
192
191
190
191
187
189
193
195
182
166
129
121
103
88
71
70
66
61
61
54
55
49
78
69
56
41
44
51
57
58
67
76
80
73
70
77
81
85
81
91
118
166
196
200
200
200
200
200
200
200
200
200
200
201
201
201
201
202
202
201
201
201
201
202
201
201
201
201
201
201
200
201
201
201
200
200
200
182
182
183
182
183
183
183
184
185
185
185
186
186
186
186
187
188
188
189
190
190
191
192
192
193
184
182
177
182
194
187
176
148
114
92
67
66
62
57
50
46
48
47
54
57
67
76
60
50
50
55
51
53
60
66
74
71
70
67
79
83
80
75
91
111
165
196
199
200
200
200
200
200
201
200
200
201
201
201
201
202
202
202
202
201
201
201
201
201
201
201
201
200
200
201
201
200
200
200
200
182
182
182
182
182
183
184
184
185
184
184
185
186
186
186
187
188
188
189
189
190
191
191
192
193
174
177
158
167
176
188
178
139
93
69
62
50
55
48
42
40
39
39
40
56
66
65
70
50
51
60
59
58
68
70
78
68
72
70
80
90
82
76
62
86
115
173
201
201
201
200
200
201
201
201
201
202
201
202
201
202
202
202
202
202
202
202
201
201
201
201
201
200
201
201
201
201
201
201
201
182
182
182
182
183
183
183
184
184
184
185
185
185
186
186
187
187
188
189
189
189
190
191
192
189
174
161
175
152
156
167
123
101
67
64
65
51
46
41
38
35
31
37
40
52
62
58
71
39
45
43
52
54
58
52
56
57
67
64
80
102
85
88
85
57
74
144
181
199
200
200
200
201
201
202
201
202
201
202
202
202
202
202
202
202
202
202
202
201
201
202
201
201
201
201
201
201
201
201
200
182
182
182
182
182
183
183
184
184
184
184
184
185
186
186
187
187
188
188
189
190
191
191
192
191
172
144
141
123
131
124
102
75
65
58
52
61
55
38
34
31
30
34
40
47
74
50
62
46
39
41
48
51
50
52
53
54
64
78
77
78
87
90
94
81
68
106
182
199
199
199
200
202
201
201
202
202
202
202
202
203
203
202
202
202
202
202
202
202
201
202
202
201
201
202
201
201
201
201
201
182
182
182
182
182
183
183
183
183
184
184
185
185
185
186
186
187
188
188
189
189
190
191
192
192
180
141
125
110
102
86
81
71
53
51
48
67
56
42
32
32
31
33
40
45
73
42
83
60
47
41
47
55
57
56
52
56
60
62
69
68
86
88
92
100
80
78
150
200
201
199
201
202
202
202
203
202
202
203
202
203
202
202
202
202
202
202
202
202
202
202
202
202
201
201
202
201
202
201
201
182
181
182
182
182
183
183
183
183
184
184
185
184
185
185
186
186
187
188
188
189
190
190
191
183
183
141
110
89
83
71
76
78
80
76
68
78
59
45
35
32
32
34
33
44
72
45
92
64
49
43
44
50
57
63
65
77
60
51
60
65
66
85
88
99
76
58
141
189
199
198
199
202
201
202
203
203
203
203
203
203
203
203
203
203
202
202
203
202
202
202
202
202
201
202
202
202
201
201
201
182
181
182
181
182
182
183
183
183
183
184
184
184
185
185
186
187
188
188
189
189
190
191
188
166
146
122
85
78
73
72
69
67
62
65
66
70
57
45
36
31
32
36
42
57
59
55
74
56
51
49
49
54
58
64
68
77
59
61
63
64
66
69
82
79
77
75
116
182
190
195
196
196
200
202
203
204
204
204
203
203
204
204
203
203
203
203
202
202
202
202
202
202
202
202
202
201
201
202
201
181
181
181
181
182
182
182
183
183
183
183
184
184
185
186
186
187
188
188
189
189
188
186
180
149
115
85
72
65
59
69
63
69
60
57
67
79
55
41
36
32
31
31
43
55
54
67
96
54
51
52
51
53
58
63
74
68
62
60
63
64
66
70
79
81
80
83
82
135
190
196
200
198
197
193
201
197
200
204
203
204
204
204
203
203
203
203
203
203
202
202
202
202
202
202
202
201
201
201
201
181
181
181
181
181
182
182
182
183
182
183
184
184
185
186
186
187
188
187
189
189
189
177
138
98
83
70
61
51
51
56
48
53
51
51
56
61
54
37
37
29
31
31
39
49
58
75
89
64
47
48
50
51
51
57
64
63
61
64
66
69
65
73
83
88
77
96
82
87
166
196
199
196
191
175
175
184
197
204
204
204
204
204
204
204
203
203
203
203
203
203
202
202
202
202
202
202
202
202
202
181
181
181
181
181
182
182
182
183
182
183
183
184
184
185
186
187
188
188
188
187
184
140
105
83
71
66
57
54
51
56
51
46
47
50
51
55
49
44
37
31
32
29
36
46
57
66
73
58
49
48
52
50
57
65
62
52
52
61
68
70
78
74
78
77
73
89
77
83
110
148
184
186
174
144
153
170
199
205
204
204
204
204
204
204
203
203
203
203
203
203
203
203
202
202
202
202
202
202
202
181
181
181
181
181
182
181
182
182
182
183
183
183
184
185
186
187
188
188
189
189
149
119
87
74
63
55
48
45
51
55
55
49
41
52
50
59
45
54
46
38
39
36
40
45
53
61
57
49
52
54
60
65
63
62
70
68
62
63
69
73
78
78
77
77
78
94
77
61
73
102
134
123
124
123
124
162
187
203
204
205
204
204
204
204
203
203
204
203
203
203
202
202
202
203
202
202
202
202
202
181
181
181
181
181
181
181
182
183
183
182
183
184
184
185
186
187
188
189
189
175
131
98
71
64
55
44
47
58
55
52
47
48
46
46
45
59
45
46
58
46
39
43
42
42
51
53
45
50
58
62
66
59
58
50
59
59
62
71
69
73
75
81
78
79
79
83
75
66
56
54
57
63
76
102
130
151
186
201
205
205
204
205
204
204
204
204
204
203
203
203
203
202
203
203
203
202
202
202
202
181
181
180
180
180
180
181
182
182
183
182
183
184
184
185
186
187
188
189
181
157
124
75
66
58
48
49
54
63
59
56
53
50
46
47
46
59
52
44
53
57
43
41
46
49
50
50
44
51
60
73
66
61
60
58
57
57
59
58
64
70
80
76
76
77
79
83
75
70
62
60
62
65
81
104
134
145
189
196
203
204
205
204
204
204
204
204
204
204
203
203
203
203
203
203
203
203
202
202
203
181
180
180
181
180
181
181
181
182
182
183
183
184
184
185
186
187
188
189
190
149
106
65
63
53
49
50
50
62
59
57
54
55
48
49
46
49
60
55
53
62
57
42
53
64
58
55
52
55
69
72
66
59
68
59
50
49
51
54
61
67
68
71
75
77
74
75
72
71
73
63
59
59
80
101
130
163
178
191
202
205
205
204
205
204
204
204
204
204
203
203
203
203
203
203
203
203
203
202
203
180
180
180
180
181
180
181
181
181
182
182
183
184
185
186
186
187
187
188
189
143
86
58
55
51
48
51
54
60
58
56
53
55
57
55
53
51
57
64
61
65
65
57
61
62
70
60
55
51
76
75
69
63
61
71
67
59
57
56
61
63
67
72
78
81
78
78
74
71
68
60
54
56
65
94
117
143
167
185
202
204
204
204
204
204
204
204
204
204
203
203
203
203
203
203
203
203
202
202
202
179
179
180
180
181
180
180
181
181
182
182
183
184
185
186
186
187
188
189
188
139
79
54
45
46
50
52
57
54
60
56
55
56
59
63
58
55
55
59
66
72
73
69
72
71
77
66
60
66
75
83
73
66
72
65
51
55
56
55
63
68
73
74
79
84
80
76
79
72
71
63
58
66
80
95
100
127
161
183
200
200
204
204
204
205
204
204
204
204
203
204
204
204
203
204
203
203
203
203
203
179
179
179
180
180
180
180
181
181
182
183
183
184
185
185
186
187
187
188
189
148
77
51
46
40
46
51
46
47
49
56
55
55
60
65
68
64
66
67
73
77
81
74
77
78
80
71
74
81
89
95
90
73
70
76
78
79
81
77
69
73
77
80
83
84
83
84
77
69
72
65
68
72
98
107
118
107
128
165
187
202
202
203
204
204
204
204
204
204
204
204
204
204
204
204
204
204
203
203
203
179
179
179
179
180
179
180
180
181
181
182
183
184
185
185
186
186
187
188
189
178
98
57
50
48
46
47
52
48
49
51
54
57
64
70
75
75
77
77
81
85
85
81
82
86
88
90
91
95
106
120
119
107
89
87
91
91
85
74
65
63
69
71
77
87
84
80
79
76
72
66
78
78
90
133
151
148
111
160
196
198
202
204
204
205
204
204
204
204
204
204
204
204
204
203
204
204
203
203
203
178
179
179
179
180
179
179
180
181
181
182
183
183
184
185
186
186
186
187
189
186
129
63
54
51
45
49
46
47
47
46
53
60
68
78
81
81
81
87
90
92
95
97
95
100
97
112
122
122
125
132
131
128
122
110
114
122
105
95
79
68
64
68
75
85
89
93
98
85
82
80
95
84
82
125
151
160
145
171
191
203
204
205
205
205
204
204
204
204
204
204
204
204
203
203
204
204
204
203
203
178
179
178
179
179
179
180
180
180
180
181
181
182
183
184
185
185
186
187
188
189
145
83
52
46
37
40
38
40
40
43
52
64
74
83
86
89
91
95
102
107
112
116
118
123
129
134
142
139
140
145
144
146
143
147
141
135
130
116
105
101
94
87
82
84
92
83
83
86
92
82
82
83
84
112
137
159
139
188
197
206
206
205
205
205
205
205
204
204
204
204
204
204
204
204
204
204
204
203
203
178
178
178
178
179
178
179
179
180
180
180
181
182
182
183
184
185
186
187
188
188
180
108
70
56
41
39
36
33
31
29
42
65
89
95
98
98
98
104
108
109
126
133
138
145
151
155
157
152
152
152
154
160
157
163
167
171
166
142
129
135
133
131
128
123
113
90
82
87
79
74
69
82
93
104
127
153
162
193
205
205
206
205
205
205
205
204
204
204
204
204
204
204
204
204
204
204
204
203
203
178
178
178
178
178
178
178
179
179
180
179
180
181
182
183
184
184
185
186
186
188
187
125
65
58
51
39
36
25
24
25
38
67
88
107
106
98
88
89
101
96
116
124
137
145
149
153
162
160
157
158
164
168
162
165
160
163
161
160
135
139
147
154
163
159
148
97
71
71
69
69
73
83
93
107
119
124
163
193
203
206
206
206
205
205
205
205
204
204
204
204
204
204
204
204
204
204
204
204
204
177
178
178
178
178
178
178
178
179
179
179
180
180
181
182
183
184
184
186
186
187
188
141
73
55
58
43
35
30
29
34
47
76
91
104
95
81
70
64
58
60
69
88
105
128
136
147
154
154
157
159
162
163
160
150
143
136
132
125
113
117
136
150
161
166
164
118
77
71
73
74
80
87
91
91
120
142
173
205
205
206
205
205
205
205
205
205
204
205
204
204
204
204
204
204
204
204
204
204
204
177
177
177
177
178
178
177
177
178
178
178
179
180
180
181
182
183
184
185
186
186
185
181
101
52
58
51
34
31
31
35
66
101
96
90
91
85
84
81
65
62
69
71
88
107
121
132
137
144
155
162
160
149
143
136
128
106
106
98
123
144
158
152
155
153
151
138
92
64
72
78
85
96
104
114
130
152
182
199
204
206
206
206
205
205
205
205
205
205
205
204
204
204
204
204
204
204
204
204
203
178
177
177
177
177
177
177
177
178
178
178
178
179
179
180
181
182
183
184
185
186
187
188
133
62
55
53
41
33
31
49
90
108
92
77
94
94
105
112
108
100
86
77
86
97
101
111
119
131
153
163
164
157
150
139
130
120
120
121
138
147
147
145
145
154
152
152
92
60
67
77
88
106
118
133
182
197
205
206
206
206
206
206
205
205
205
205
205
205
205
205
204
204
204
204
204
204
204
204
204
177
177
177
177
176
176
177
177
177
177
178
178
178
179
180
180
181
182
183
184
185
186
188
181
115
53
54
46
38
38
65
104
112
88
109
116
107
125
130
132
127
119
108
86
79
82
94
105
126
153
172
179
168
162
134
115
127
134
116
132
169
160
181
183
161
152
159
101
71
60
58
83
124
139
167
202
203
205
205
206
206
206
206
205
205
205
205
205
205
204
204
204
205
204
204
204
204
204
204
204
177
177
177
177
177
176
176
176
176
176
177
177
178
179
179
179
180
181
182
184
185
185
187
188
167
71
52
49
38
55
70
90
106
117
116
108
96
86
83
93
97
94
72
76
72
64
78
95
123
152
176
187
174
133
119
103
76
71
79
106
131
143
168
182
174
169
147
110
79
69
84
131
169
174
196
201
205
205
205
206
205
205
205
205
205
205
205
205
205
205
205
204
204
205
205
204
204
204
204
204
177
176
177
177
176
176
176
176
176
176
177
177
178
178
178
179
179
180
182
183
184
184
186
188
186
123
71
54
68
75
71
80
107
119
107
79
67
57
58
62
75
88
83
49
65
69
73
77
101
125
138
142
136
126
109
97
80
84
87
94
95
118
141
172
184
186
150
111
100
94
149
188
199
195
205
203
204
206
206
206
206
206
205
205
205
205
205
205
205
205
205
205
205
204
204
204
204
204
204
204
177
176
176
177
176
176
175
176
176
176
176
177
177
177
178
178
179
180
181
182
183
184
185
187
189
167
116
86
86
109
60
53
118
114
90
65
47
74
86
75
84
97
83
66
72
77
68
89
122
146
166
138
106
123
105
99
85
93
93
112
140
85
108
149
174
174
157
88
118
153
168
187
204
204
205
205
205
206
205
205
205
206
205
205
205
205
205
205
205
205
205
205
205
204
205
204
204
204
204
204
177
177
176
176
176
176
175
175
176
176
176
177
176
177
178
178
178
179
180
182
183
184
185
186
187
157
89
88
82
66
91
91
106
105
85
83
85
87
89
84
89
93
89
86
83
73
58
89
128
171
166
141
115
156
120
110
96
105
114
134
150
152
140
142
167
182
170
92
131
177
170
189
200
205
205
205
206
205
205
206
205
205
205
205
205
205
205
205
205
205
205
205
205
204
205
204
204
204
204
204
176
176
176
177
176
176
175
175
175
175
175
176
176
176
177
178
178
179
180
181
182
183
184
185
186
160
89
96
90
81
98
114
110
110
103
101
97
100
99
91
95
97
96
89
91
74
56
83
130
171
188
149
107
167
139
129
120
120
124
142
157
162
165
170
173
187
166
132
164
183
182
201
204
205
204
205
205
205
205
206
206
205
205
205
205
205
205
205
205
205
205
205
205
204
205
204
204
204
204
204
176
176
176
176
176
176
175
175
175
175
176
176
176
176
177
177
178
179
180
181
182
182
183
184
185
167
90
96
100
95
107
128
110
119
116
112
115
119
116
106
103
101
104
102
104
77
48
105
138
169
175
160
150
177
160
147
133
135
142
151
166
177
175
178
183
180
163
161
179
170
175
204
204
205
204
205
205
205
205
206
205
205
205
205
206
205
205
206
205
205
205
205
205
204
204
205
204
204
204
204
176
176
176
176
176
176
176
175
175
174
175
175
176
176
176
177
178
179
180
181
181
182
183
184
183
179
103
99
120
90
119
123
111
121
120
118
118
118
115
110
110
115
119
115
107
82
87
120
142
168
186
187
159
170
177
171
159
154
154
156
163
174
180
185
188
189
175
170
183
163
196
204
204
204
204
205
205
205
205
206
206
206
205
205
206
205
205
206
205
205
205
205
205
205
205
205
204
204
204
204
175
176
175
175
176
175
175
175
175
174
175
175
175
176
176
177
178
179
180
180
181
182
182
183
184
185
142
114
104
107
128
135
117
114
123
120
120
119
120
120
121
125
119
114
101
80
108
128
145
170
189
196
185
178
176
168
165
169
167
163
163
171
179
186
191
183
180
170
180
182
202
204
204
204
205
205
205
205
205
205
206
206
206
206
206
206
206
205
206
205
205
205
205
205
205
205
205
204
204
204
175
175
176
175
175
175
175
174
175
175
175
175
176
176
177
177
178
178
179
180
180
181
181
182
182
179
168
111
84
109
131
135
124
114
118
121
126
127
127
130
130
125
119
106
85
106
116
124
140
169
195
203
191
183
172
163
165
166
166
167
170
177
183
190
177
173
193
183
167
183
204
204
204
204
204
205
205
205
205
205
206
205
205
206
206
206
206
206
205
206
206
205
205
205
205
205
205
205
204
204
175
175
175
175
175
175
174
174
174
175
175
175
176
176
177
177
177
178
178
179
180
180
181
181
183
184
183
123
79
108
123
136
130
128
114
113
127
129
132
132
131
117
108
89
96
108
114
111
125
161
191
189
194
192
167
147
164
159
167
170
173
180
187
168
173
184
193
195
158
181
204
204
204
204
205
205
205
205
206
206
205
205
205
206
206
206
206
206
206
205
205
205
205
205
205
205
205
205
205
205
175
175
175
175
175
174
174
174
175
175
175
175
176
177
177
177
178
178
179
178
179
179
181
181
182
184
185
145
90
97
119
135
129
125
125
120
108
109
121
116
110
106
105
95
95
119
122
90
111
153
173
138
180
189
169
164
143
142
156
161
163
152
155
181
194
197
193
195
148
181
203
204
204
204
205
205
205
205
206
206
206
206
206
206
206
206
206
206
206
206
205
205
205
205
205
205
205
205
205
205
175
175
174
175
174
174
175
176
175
175
175
176
176
176
177
177
177
178
178
178
179
179
180
181
181
182
180
168
120
91
122
134
127
126
125
124
126
127
128
127
127
117
112
92
84
91
68
69
117
155
154
110
142
161
158
164
164
156
157
154
168
183
189
191
193
196
193
179
170
187
203
204
204
204
204
205
205
205
205
206
206
206
206
206
206
206
206
206
206
206
206
206
205
205
205
205
205
205
205
204
175
176
174
174
175
175
175
175
175
175
176
176
176
176
177
177
177
177
178
178
178
179
179
180
181
182
185
164
135
117
119
127
125
124
124
126
127
129
128
128
128
124
113
103
96
93
92
125
135
155
178
180
163
157
166
172
164
163
171
173
182
186
189
192
195
196
196
184
192
196
201
204
204
204
204
205
205
205
206
206
206
206
206
206
206
206
206
206
206
206
205
205
205
205
205
205
205
205
205
205
175
175
174
175
175
176
175
175
175
175
175
176
176
176
176
177
177
177
177
177
178
179
179
180
180
182
179
168
145
123
120
132
125
125
124
125
127
130
130
129
126
121
114
111
104
95
99
136
143
155
180
196
180
173
178
176
170
164
174
178
183
187
190
195
196
195
194
195
203
204
203
203
204
204
205
205
205
206
206
206
206
206
206
206
206
206
206
206
206
206
206
205
206
205
206
205
205
205
205
205
175
175
174
175
175
175
175
175
176
175
175
176
176
176
176
176
176
177
177
177
178
178
179
180
180
181
182
185
153
113
107
121
125
124
124
126
127
130
129
128
127
120
118
117
114
113
115
134
147
141
170
196
190
180
179
178
176
169
173
182
188
188
190
193
194
194
195
197
202
203
203
204
204
205
205
205
205
206
206
206
206
206
206
206
206
206
206
206
206
205
205
205
205
205
205
205
205
205
205
205
175
175
175
175
175
175
176
175
176
176
176
176
176
176
176
176
177
177
177
178
178
178
179
179
180
181
183
185
171
117
98
122
127
123
124
125
127
129
129
128
123
120
122
125
127
128
127
141
169
157
165
178
189
185
183
183
183
176
167
181
189
191
192
195
195
194
189
196
201
204
203
204
204
205
205
205
205
206
206
206
206
206
206
206
206
206
206
206
206
206
206
206
205
205
205
205
205
205
205
205
175
175
174
174
175
176
175
175
176
176
176
176
176
176
176
176
176
177
177
177
177
178
179
179
180
181
182
184
185
162
141
142
128
123
122
123
126
127
127
125
124
124
129
125
131
124
125
133
143
153
156
164
177
189
184
191
190
180
174
180
187
191
194
195
196
196
195
198
202
203
204
204
204
205
205
205
206
206
206
206
206
206
206
206
206
206
206
206
206
206
206
206
206
206
205
205
205
205
205
205
175
174
175
175
175
175
175
175
176
176
176
176
176
175
176
176
177
177
177
177
177
179
179
179
180
181
182
184
185
187
188
178
140
123
120
121
122
124
125
123
127
122
125
116
118
112
118
125
129
136
152
155
162
167
173
190
178
181
182
179
190
191
193
194
196
197
198
199
201
203
204
204
205
206
205
206
206
206
206
206
206
206
206
206
206
206
206
206
206
206
206
206
206
205
206
205
205
205
205
205
175
175
175
175
175
175
176
175
176
176
176
175
175
175
175
175
176
177
177
177
177
178
179
179
180
180
182
183
185
186
187
171
132
124
121
121
122
123
123
127
123
113
100
99
100
90
99
121
127
113
119
142
143
146
153
162
154
165
181
183
191
192
195
195
199
199
200
201
203
203
204
204
205
205
205
206
206
206
207
206
206
206
206
206
206
206
206
206
206
206
206
206
206
206
206
205
205
205
205
205
175
175
175
175
175
175
175
176
175
175
176
175
175
175
174
175
176
176
177
177
178
178
178
179
180
180
182
183
184
186
187
188
142
125
121
120
119
123
125
132
127
81
91
80
93
109
112
134
148
144
142
151
155
155
144
122
110
145
169
184
191
191
194
196
199
200
202
202
202
203
204
204
205
205
205
206
206
206
206
206
207
206
206
206
206
206
206
206
206
206
206
206
206
206
205
205
205
205
205
205
175
175
175
175
175
175
175
175
175
175
175
175
175
174
174
174
175
176
176
177
177
177
177
178
180
180
182
182
183
185
186
188
154
125
121
121
120
121
123
132
129
109
104
99
102
101
107
132
139
146
158
165
173
175
167
165
148
146
168
184
190
190
193
197
199
200
202
202
202
203
204
204
205
205
205
206
206
207
206
206
206
206
206
206
206
206
206
206
206
206
206
206
206
205
206
206
205
205
205
205
174
175
175
175
175
175
175
175
174
175
174
175
174
174
174
174
175
176
176
176
177
177
177
178
179
179
181
182
183
184
185
187
170
126
124
123
122
121
123
129
129
122
118
113
117
117
120
132
133
142
149
164
176
181
187
188
172
169
174
185
191
192
193
197
198
200
201
202
202
204
204
204
204
204
205
205
206
206
206
206
206
206
206
206
206
206
206
206
206
206
206
206
206
206
206
205
205
205
205
205
175
175
174
175
175
175
175
174
174
174
174
174
174
174
174
174
175
175
176
176
177
177
177
178
179
179
180
181
182
183
185
187
183
130
127
124
122
120
122
121
122
120
119
121
127
133
134
145
143
142
144
163
179
186
185
185
183
180
181
186
192
194
195
195
197
199
201
201
202
204
204
205
205
205
205
206
206
206
206
206
206
206
206
206
206
206
206
206
206
206
206
206
206
206
206
205
205
205
205
205
175
175
174
175
175
175
174
174
174
174
174
174
174
174
174
175
175
176
176
176
176
177
177
178
179
180
180
181
182
183
184
186
172
146
130
124
122
120
119
118
118
118
119
123
131
139
143
151
154
154
156
166
176
181
183
182
181
181
183
186
192
192
194
193
196
199
200
201
202
203
203
205
205
205
205
206
206
206
206
206
206
206
206
206
206
206
206
206
206
206
206
206
206
205
206
206
205
205
205
205
175
175
174
175
175
175
175
175
174
174
174
174
174
174
174
174
174
175
176
176
176
177
177
178
179
180
180
181
182
183
184
182
173
152
123
121
121
121
120
117
115
115
117
123
131
140
148
149
152
159
162
166
174
179
180
179
180
182
185
187
191
192
189
190
196
198
200
201
202
203
203
204
205
205
205
206
206
206
206
206
206
206
206
206
206
206
206
206
206
206
206
206
205
205
206
205
205
205
205
205
174
174
174
174
174
175
174
174
174
173
173
174
173
174
174
174
175
176
176
176
176
177
177
178
178
179
181
181
182
183
184
185
186
153
130
118
118
117
118
118
113
113
116
121
132
136
139
141
154
170
171
170
170
176
178
180
180
183
185
187
186
188
186
190
197
198
200
200
202
202
203
204
205
205
206
206
206
206
206
206
206
206
206
206
206
206
206
206
206
206
206
206
206
206
206
205
205
205
205
205
174
174
174
174
174
174
174
174
174
174
173
174
173
173
173
174
175
175
175
176
176
177
177
178
178
179
180
181
181
182
184
185
186
153
126
119
115
115
115
116
114
113
115
121
130
133
134
140
154
166
172
176
176
178
178
182
182
183
186
186
183
182
180
187
195
197
199
200
201
202
203
204
204
205
206
206
206
206
206
206
206
206
206
206
206
206
206
206
206
206
206
206
206
206
206
205
205
205
205
205
174
173
174
174
173
173
173
174
174
174
173
173
173
173
173
173
174
175
175
175
176
177
177
178
178
179
180
181
182
182
184
184
186
155
133
118
114
111
112
115
115
116
117
120
127
133
136
143
153
161
172
175
177
180
181
182
185
184
184
179
178
175
186
188
193
197
199
199
200
202
203
203
204
204
205
206
206
206
206
206
206
206
206
206
206
206
206
206
206
206
206
206
206
205
205
205
205
205
205
205
174
173
173
173
173
174
173
173
173
173
173
173
172
172
173
173
174
174
175
175
175
176
176
177
179
179
180
180
181
182
183
184
186
151
132
118
113
105
107
112
113
115
117
122
130
136
135
150
155
155
165
178
177
179
178
180
181
182
174
166
176
183
190
187
194
195
197
199
200
201
203
204
204
204
205
206
206
206
206
206
206
206
206
206
206
206
206
206
206
206
206
206
206
206
206
205
206
205
205
203
173
172
172
173
173
173
173
172
173
172
172
172
172
172
172
172
173
174
174
174
175
175
175
176
177
179
179
179
181
181
183
184
185
149
128
120
114
109
100
105
110
111
117
122
131
137
141
148
156
157
163
168
174
171
172
177
176
171
158
169
178
185
192
188
193
195
197
199
200
201
202
203
204
204
206
206
206
206
206
206
206
206
206
206
206
206
206
206
206
206
206
206
206
206
206
205
205
205
205
205
173
172
173
172
172
173
172
172
172
172
172
171
171
171
171
171
172
173
173
173
174
174
174
175
175
177
178
178
179
180
181
183
174
147
127
121
116
110
103
102
102
102
110
121
127
133
142
146
151
155
156
162
166
161
161
161
159
150
164
175
183
185
188
187
192
194
196
198
200
201
202
203
205
205
206
207
207
206
206
206
206
206
206
206
206
206
206
206
205
205
205
206
206
206
206
206
205
205
205
205
172
173
172
172
172
172
172
171
171
171
171
170
170
170
170
170
171
171
172
172
172
173
173
174
174
175
176
177
177
178
180
181
182
149
127
122
116
112
107
100
100
98
103
112
123
128
138
138
142
141
144
147
148
147
151
150
149
159
173
182
186
191
189
187
191
192
195
197
199
201
202
203
204
205
206
206
207
207
206
206
206
206
206
206
206
206
206
206
205
205
206
205
205
206
205
205
205
205
205
205
172
172
171
171
171
171
172
171
170
170
170
170
169
169
170
169
170
170
171
171
171
172
172
173
173
174
174
175
176
177
178
180
181
141
127
123
119
114
108
102
100
100
102
104
109
117
121
126
128
134
139
141
133
138
145
154
157
164
175
186
188
192
193
186
190
188
194
197
198
201
202
203
203
204
205
206
207
206
206
207
206
206
206
206
206
206
206
206
205
205
205
206
206
206
206
205
205
205
205
205
172
172
171
171
171
171
171
171
170
170
170
170
170
169
169
169
169
170
170
170
171
171
172
172
172
173
174
175
175
176
178
179
155
138
129
125
121
117
112
107
102
101
102
106
108
112
118
120
125
128
139
145
145
151
155
160
164
170
177
185
188
191
180
148
153
176
166
173
198
201
202
202
204
204
205
206
207
207
206
206
207
206
206
206
206
206
206
206
206
206
206
205
205
205
206
205
205
205
205
205
171
171
171
171
171
171
170
170
170
170
170
170
169
169
169
168
168
169
169
170
171
171
171
172
172
172
173
173
175
175
149
155
121
129
126
126
123
122
117
113
106
104
103
107
112
117
121
125
131
136
146
154
161
161
161
168
172
175
179
185
189
187
190
91
49
83
121
131
185
179
189
198
204
205
206
206
207
207
207
206
206
206
206
206
206
206
205
206
205
205
205
205
205
205
205
206
205
205
205
205
171
171
170
171
170
170
170
169
169
169
169
169
169
168
168
168
168
169
169
169
170
170
171
171
171
172
173
171
126
110
88
77
48
122
124
126
124
125
121
116
110
107
107
107
112
118
127
132
140
146
156
164
175
174
175
178
177
178
182
185
185
181
163
92
45
22
25
46
97
142
177
198
204
205
206
206
206
207
206
206
206
206
206
206
206
206
205
205
205
205
206
205
205
205
206
205
205
205
205
205
171
170
169
170
170
170
169
169
169
168
168
168
167
167
168
167
167
168
168
168
169
170
170
171
171
171
128
106
50
49
19
18
47
120
124
127
126
128
127
122
114
108
108
109
112
117
127
139
146
155
163
174
177
180
183
180
180
181
181
183
186
190
190
97
20
20
19
23
28
36
72
133
157
204
206
206
206
207
206
207
206
206
206
206
206
206
206
206
205
205
205
205
205
205
205
205
205
205
205
205
170
169
169
169
169
169
168
167
168
167
167
167
167
166
167
167
167
167
168
168
168
169
169
160
140
128
62
26
22
20
17
27
60
105
125
128
128
127
127
125
118
111
108
109
112
118
128
141
150
162
169
176
179
181
184
182
181
183
181
182
186
190
169
107
20
19
18
21
26
26
23
34
87
155
195
197
207
207
207
207
206
206
206
206
206
206
206
205
205
205
205
205
205
205
205
205
205
205
205
205
169
168
168
168
167
168
167
166
166
166
165
166
166
166
167
166
167
167
167
167
168
168
168
160
101
70
25
21
20
18
16
16
62
117
124
127
129
129
130
128
121
112
110
108
110
117
124
141
153
166
176
179
183
183
183
184
181
182
181
182
186
189
190
116
20
19
19
20
23
24
21
25
27
47
113
181
205
207
206
206
206
206
206
206
206
206
206
205
205
205
205
205
205
205
205
205
205
205
205
205
169
168
167
167
166
166
166
166
166
165
164
165
165
165
166
165
166
166
166
167
167
167
160
94
33
26
23
21
19
18
16
17
72
114
121
127
130
131
131
128
125
117
112
110
112
116
120
130
157
174
180
183
183
183
182
183
182
182
180
184
189
190
191
124
52
25
18
19
22
22
21
20
22
23
32
100
161
180
207
207
206
206
206
206
206
206
206
206
205
205
205
205
205
205
205
205
205
205
205
205
168
167
167
166
166
165
165
164
164
164
164
164
164
164
164
165
165
165
165
165
166
164
106
34
28
23
21
20
19
17
14
43
96
113
119
126
129
132
132
131
128
122
115
112
113
118
119
117
148
166
186
183
183
184
182
184
183
181
181
184
188
189
190
130
39
47
30
18
21
21
21
20
20
22
24
27
59
148
202
203
205
207
206
206
206
206
206
206
206
205
205
205
205
205
205
205
205
205
205
205
167
166
166
165
166
165
164
164
163
163
163
164
163
164
164
164
164
164
164
164
155
134
43
30
24
22
19
18
15
18
24
65
100
110
117
125
129
131
136
135
131
125
120
113
116
119
121
115
136
157
173
178
182
183
184
183
183
179
181
184
188
189
162
108
28
41
52
25
22
21
19
20
20
21
21
22
38
52
141
199
207
206
206
206
207
206
206
206
205
205
205
205
205
205
204
204
204
205
205
205
165
165
165
165
164
163
163
164
163
163
162
163
163
162
162
163
163
163
163
163
159
77
32
28
23
19
16
17
16
17
62
93
100
108
116
122
127
132
135
138
136
130
126
119
119
120
124
126
130
153
173
176
183
183
185
183
183
181
182
185
188
189
163
114
58
32
49
51
21
22
17
19
20
21
20
20
21
24
93
147
197
207
200
206
206
206
206
205
205
205
205
205
205
205
204
205
204
205
205
205
164
164
163
163
162
162
162
162
162
162
161
162
162
162
162
162
162
162
162
163
126
78
42
25
17
17
17
20
23
49
84
100
101
107
115
120
125
130
137
140
139
135
132
124
121
126
131
135
140
150
163
173
181
184
184
183
182
181
183
186
188
188
187
127
60
27
44
61
46
30
23
19
20
18
19
19
19
20
63
98
124
159
181
206
206
206
206
205
206
205
205
205
205
205
205
204
204
204
204
205
164
163
162
162
161
161
161
161
161
161
161
161
161
161
161
161
161
162
162
159
107
68
33
20
15
16
18
21
26
57
81
104
102
107
113
118
123
129
135
139
143
140
136
130
129
131
135
140
145
153
162
171
177
181
183
182
180
180
184
187
188
182
182
148
72
42
42
60
59
50
28
25
24
21
19
17
18
19
40
60
83
125
160
207
207
206
206
206
205
206
205
205
205
205
204
204
205
204
204
204
163
162
161
161
161
160
161
160
160
160
160
160
160
160
160
160
161
161
145
118
79
53
34
21
15
17
19
21
26
33
80
104
103
106
112
117
121
127
133
141
147
146
142
138
135
135
139
144
149
155
162
169
176
179
182
179
178
180
184
185
180
173
172
130
69
30
44
55
60
57
37
32
31
23
19
16
16
17
18
19
24
75
129
201
206
206
206
205
206
205
205
205
205
204
204
204
204
204
204
204
162
161
160
160
160
160
160
159
160
160
160
160
160
160
160
159
159
160
142
60
40
34
32
28
16
18
19
22
25
28
61
93
102
105
110
114
118
123
131
141
147
150
147
144
139
141
143
147
151
158
163
169
174
180
179
175
177
180
181
183
173
160
152
106
61
37
48
56
54
51
41
38
47
34
22
20
18
16
16
18
19
25
45
146
205
206
206
205
205
204
204
204
204
205
204
204
204
204
204
204
161
160
160
160
160
160
159
158
159
159
159
159
159
159
159
159
159
160
138
50
37
33
32
35
19
17
20
22
24
26
46
65
93
103
113
114
116
120
128
137
145
150
154
150
145
146
147
150
155
159
163
169
174
175
174
172
174
179
180
177
170
143
120
89
61
40
48
49
50
53
40
41
47
46
25
21
20
18
16
16
17
21
29
66
181
206
206
206
205
205
205
204
204
204
205
204
204
204
204
204
160
160
159
159
159
159
158
158
158
159
158
158
158
158
158
158
158
159
155
93
36
31
30
31
31
23
19
22
23
26
32
30
60
101
112
112
116
116
125
133
143
154
157
155
150
149
149
152
156
160
164
168
172
174
172
170
171
173
171
167
150
125
100
71
56
44
46
45
45
45
38
41
55
50
34
25
19
19
18
17
16
16
22
63
138
202
204
205
205
204
204
204
204
204
204
204
204
204
204
204
160
160
159
158
159
159
158
158
158
158
158
157
158
157
158
157
158
158
156
134
51
29
28
28
35
27
20
21
22
25
27
28
32
70
91
107
116
117
123
130
141
153
162
161
155
153
151
153
156
161
162
164
167
170
166
164
164
164
156
143
122
101
80
46
51
43
41
40
42
38
29
49
55
46
34
27
18
16
17
18
17
16
22
29
108
178
206
206
205
205
204
205
204
204
204
204
204
204
204
204
160
159
158
158
159
158
158
157
157
157
157
157
157
157
157
157
157
142
97
70
27
24
27
26
28
32
31
22
23
22
24
26
29
35
75
109
112
113
119
127
137
152
161
163
160
158
155
156
156
157
160
163
165
161
159
157
154
148
130
110
96
76
43
39
40
38
36
35
34
25
39
52
49
40
31
23
19
16
15
17
17
19
23
27
87
157
206
206
205
205
204
205
204
204
204
204
204
204
204
204
159
159
158
158
157
157
157
157
157
156
157
156
156
156
156
146
144
83
58
25
23
21
22
24
25
26
29
34
29
30
29
24
25
31
36
86
110
115
118
122
133
146
158
164
164
164
160
157
153
152
153
155
157
154
149
145
136
117
100
86
59
52
38
39
36
32
32
31
24
33
48
46
43
37
28
23
19
17
16
15
15
22
25
43
58
159
206
206
205
205
205
205
205
204
204
204
204
204
204
204
158
158
157
157
157
157
156
157
157
155
155
155
155
155
153
130
76
35
29
24
21
21
19
19
22
22
25
27
31
38
38
33
31
30
33
40
84
110
118
120
129
141
155
164
167
168
167
163
155
148
146
145
142
136
129
120
107
91
67
55
34
37
35
34
31
31
28
22
32
44
49
43
39
32
25
22
20
20
20
17
20
31
42
64
107
186
200
205
205
205
205
205
204
204
204
204
204
204
204
203
157
157
156
157
156
156
155
155
155
155
154
153
154
144
106
80
53
28
27
26
22
20
19
19
17
18
20
22
24
29
34
39
36
39
38
39
44
90
115
116
126
137
149
164
173
171
170
165
157
148
140
134
127
121
107
99
79
45
32
33
34
34
33
32
29
27
21
24
39
46
44
39
35
29
25
24
23
22
22
17
17
38
51
63
123
202
203
205
204
205
205
205
204
204
204
204
204
204
204
203
156
155
155
155
155
155
154
154
150
146
147
150
108
78
39
32
29
26
26
25
23
21
19
19
18
18
18
17
19
34
48
67
92
53
33
34
38
45
79
106
123
130
142
158
171
175
172
165
151
141
130
122
113
104
79
53
31
31
32
34
33
32
32
32
26
21
21
36
46
43
38
36
34
29
28
27
27
26
20
31
39
55
60
89
178
205
205
205
204
204
205
204
204
204
204
204
204
204
203
203
155
155
154
154
154
153
152
150
145
133
141
99
52
35
31
30
28
26
25
25
24
24
22
20
19
19
17
13
14
19
35
45
41
51
25
26
30
31
33
38
67
98
131
157
170
170
169
155
144
128
113
108
93
70
53
31
31
31
32
32
30
30
30
28
22
24
36
45
45
46
39
36
38
34
32
31
33
38
44
54
56
59
68
143
203
205
205
205
205
205
205
204
204
204
204
204
204
204
203
203
153
152
152
152
152
152
151
151
147
101
73
40
39
32
29
29
28
26
25
25
24
24
23
21
20
19
18
16
14
20
29
44
36
20
22
23
25
26
28
30
32
62
88
106
156
168
147
145
133
116
85
62
53
30
33
33
32
30
29
27
25
24
29
31
35
39
46
45
44
38
36
31
39
46
47
51
55
56
56
56
50
51
45
105
173
170
180
205
205
205
205
205
204
204
204
204
203
203
203
203
151
151
150
150
149
149
149
116
88
51
36
33
32
31
29
29
28
26
26
26
25
24
24
23
23
20
19
18
18
18
18
35
40
24
20
19
20
23
25
27
29
30
55
70
88
98
106
125
96
60
51
31
30
31
31
32
32
29
27
22
25
26
31
33
36
41
46
46
48
45
43
43
49
52
56
56
53
48
50
43
37
32
34
61
63
124
140
167
205
205
205
205
204
204
204
204
204
204
203
203
149
149
147
147
133
122
101
78
41
35
33
33
32
31
29
28
27
27
26
26
26
25
25
23
23
23
21
20
19
18
20
39
39
16
18
21
23
22
19
19
24
29
32
31
28
33
53
43
34
39
30
30
30
30
30
29
30
30
30
28
29
30
33
35
36
41
45
47
49
50
47
52
54
45
43
44
38
34
35
29
31
33
36
43
41
45
90
120
171
198
204
205
205
205
204
204
204
203
203
203
147
146
145
145
115
105
56
37
34
32
31
31
31
30
29
29
28
27
27
26
26
25
25
24
23
23
23
21
20
20
21
31
33
24
19
20
23
26
23
22
21
21
22
22
26
31
33
33
34
33
34
33
33
33
31
34
35
34
33
33
33
34
36
36
39
42
45
45
47
44
46
43
38
34
28
25
27
30
30
33
34
34
37
37
40
40
54
45
58
107
143
201
199
205
204
204
203
203
203
203
145
144
122
99
77
67
47
36
31
30
31
30
31
29
29
28
28
28
28
26
26
26
25
24
24
24
23
22
21
21
22
32
40
28
24
23
24
25
25
27
26
25
23
24
26
28
29
30
30
30
32
32
29
31
29
31
32
31
38
37
35
34
35
35
39
39
35
34
30
35
35
33
26
25
28
29
29
31
33
33
34
35
37
38
39
40
44
41
42
47
60
126
187
191
205
204
204
204
203
203
143
137
102
52
35
41
31
31
30
30
31
30
30
29
29
29
28
28
27
27
26
26
26
26
25
24
24
22
21
22
22
29
33
24
25
26
26
28
27
27
27
27
26
26
25
24
23
22
22
21
21
20
20
22
22
22
22
23
33
43
38
34
32
30
30
24
26
26
27
30
28
30
29
29
30
31
32
33
35
35
36
36
37
39
38
39
40
39
41
44
46
76
90
167
176
194
204
203
203
203
125
77
40
34
32
31
29
30
30
30
30
31
30
29
29
28
28
29
28
27
26
28
26
26
26
25
24
23
22
22
23
27
39
25
25
25
27
26
28
27
28
28
31
33
33
30
29
27
25
23
22
20
19
17
16
14
13
19
34
39
38
26
24
25
27
27
28
30
30
32
32
32
32
32
34
35
34
34
36
36
37
37
39
39
38
39
39
40
41
42
43
45
49
67
140
195
204
204
203
203
52
35
31
31
29
30
29
29
30
30
29
30
31
29
29
28
28
28
27
27
27
26
26
27
26
26
24
24
22
22
24
27
32
30
28
26
26
26
28
28
27
28
27
31
32
32
30
28
26
24
23
21
20
18
17
15
13
30
46
34
33
28
28
28
29
29
32
34
34
35
34
34
34
34
36
36
36
35
37
37
38
38
38
39
39
39
40
40
41
41
43
44
45
49
90
113
185
203
203
203
33
31
30
30
30
29
29
29
30
29
29
29
30
29
30
29
30
28
28
28
28
28
27
26
26
26
25
24
23
23
24
25
33
38
30
27
27
29
31
30
30
31
32
33
32
33
32
30
28
26
24
22
21
20
18
15
15
37
40
35
33
31
31
31
32
32
34
35
35
37
36
36
36
36
39
37
37
38
40
40
40
39
38
40
40
40
41
40
41
41
43
44
44
45
58
54
97
179
191
203
30
30
29
30
31
29
29
29
30
30
30
29
29
29
29
29
28
28
28
27
27
27
26
26
26
26
26
24
24
23
24
26
28
31
27
27
28
29
31
31
32
32
33
33
33
33
32
30
28
27
25
23
22
21
19
16
18
34
38
36
33
31
32
34
35
34
37
37
37
38
38
39
37
37
39
39
39
39
41
42
41
40
39
41
40
40
40
39
40
40
41
42
43
43
44
49
54
91
179
203
30
29
29
30
29
29
29
30
30
30
30
30
30
28
28
29
28
28
28
27
28
27
26
27
27
26
25
25
24
23
24
26
29
33
29
28
28
29
32
31
31
33
34
34
33
32
32
31
29
28
27
26
23
21
19
19
23
46
41
38
32
32
33
34
35
36
37
39
38
39
39
39
38
39
39
40
39
40
43
43
44
42
39
39
39
40
41
39
39
39
40
41
43
43
44
47
57
80
125
187
29
29
29
29
29
30
29
30
30
32
31
31
30
30
29
28
28
28
28
28
28
28
27
27
27
27
26
26
25
24
24
26
31
43
31
29
29
30
31
31
31
32
33
34
33
33
32
31
31
29
28
25
23
21
19
20
26
46
44
39
33
34
34
35
36
36
37
39
39
38
40
39
40
40
41
40
40
40
41
44
43
40
38
38
40
41
42
39
39
38
39
39
41
42
43
46
47
49
55
115
30
29
29
30
30
31
30
31
30
31
31
31
30
30
29
29
29
28
30
29
28
28
27
27
27
27
26
26
25
25
24
25
28
39
33
28
30
29
31
31
31
32
33
35
33
34
32
32
30
29
28
26
24
21
19
17
30
45
45
42
33
33
35
36
37
38
39
39
39
37
39
40
41
42
41
39
39
37
39
42
43
39
37
39
41
40
40
39
38
38
38
39
40
43
43
43
46
48
51
58
