P2
# pixels removed
100 100
255
183
183
183
183
184
184
184
184
185
185
186
186
186
187
187
188
188
189
189
189
189
190
190
190
191
192
193
193
194
194
195
195
196
194
191
186
164
140
184
184
186
178
153
119
110
126
137
143
145
133
127
132
122
134
145
147
153
175
199
201
200
201
201
200
200
199
199
199
200
199
200
199
199
200
200
200
200
200
201
201
201
201
201
201
201
200
200
200
200
200
200
200
200
200
200
200
200
200
200
199
183
183
183
0
184
0
0
184
185
0
0
186
187
187
188
188
188
189
189
0
0
0
190
191
192
192
0
0
194
195
196
196
196
196
185
0
136
140
175
172
166
0
121
105
0
115
105
116
0
0
0
0
0
0
131
135
0
137
155
185
193
0
200
200
0
199
0
0
199
0
200
200
0
200
200
0
201
200
0
201
201
201
201
201
0
201
200
200
200
0
0
200
200
200
0
200
200
200
0
199
182
183
0
183
184
184
184
184
0
185
186
0
0
0
0
188
0
0
189
190
190
190
191
0
192
193
193
194
194
0
196
194
196
189
179
168
121
129
0
102
97
81
79
0
0
0
84
78
0
0
79
0
70
79
81
111
0
0
0
144
171
0
192
199
199
200
0
0
0
0
199
200
200
200
200
200
200
200
200
201
0
201
201
0
201
201
201
201
200
200
200
0
200
200
200
200
200
200
200
199
182
0
183
183
183
184
184
184
185
0
185
186
186
0
0
188
188
0
189
0
0
191
191
0
0
193
193
192
195
196
196
194
194
178
161
0
0
0
0
81
74
0
70
65
0
85
74
56
48
0
0
71
67
74
0
68
71
78
0
92
106
122
150
178
0
200
0
199
200
0
0
200
200
200
200
201
0
201
200
201
201
201
201
201
201
201
201
201
201
0
0
200
200
200
200
200
200
0
200
200
182
0
183
0
0
0
184
0
184
185
185
0
186
187
187
188
0
188
189
189
190
191
191
192
0
0
191
0
0
0
195
0
166
129
0
0
0
71
70
66
61
61
54
0
49
78
69
0
41
44
51
0
58
0
76
80
0
70
0
81
85
81
91
118
166
196
200
200
200
200
200
200
200
200
0
200
201
201
201
201
202
202
0
201
201
201
202
201
201
201
201
201
201
0
201
201
201
200
0
200
182
182
183
0
183
0
0
184
185
185
185
186
186
0
186
187
188
188
189
190
190
191
192
192
193
0
0
0
0
194
187
176
0
114
0
67
0
0
57
50
46
0
47
54
57
67
76
60
0
0
55
51
53
60
66
74
0
0
67
79
0
0
75
0
111
165
196
0
200
200
200
200
200
201
200
200
201
0
201
201
202
0
202
202
0
201
201
0
201
0
201
201
0
0
201
201
0
0
200
200
182
182
182
182
0
0
184
184
185
0
0
185
186
0
186
187
188
188
189
0
190
191
191
192
193
174
177
158
0
0
188
178
139
93
69
0
50
55
0
42
0
39
39
40
56
66
65
70
50
0
60
59
0
68
70
78
68
72
0
0
90
0
76
62
0
115
173
201
201
201
200
0
201
201
201
201
202
201
202
201
202
0
202
202
202
202
202
201
201
201
201
201
0
201
201
201
201
201
201
201
182
182
182
182
183
0
0
184
184
0
185
185
185
186
186
187
0
0
189
0
0
190
191
192
189
0
161
175
152
0
167
123
0
67
0
65
51
46
41
0
0
31
37
40
52
0
58
71
39
45
43
52
0
58
52
56
57
67
64
0
102
85
88
85
57
74
144
0
199
200
200
200
201
201
202
0
202
0
0
202
202
0
202
202
0
202
202
202
0
201
202
0
201
201
201
201
201
201
201
200
182
182
0
182
182
183
0
184
184
184
0
0
0
186
0
187
187
188
188
0
190
191
191
192
191
172
144
0
123
131
124
102
75
65
0
52
61
55
38
0
31
30
34
0
47
74
50
0
46
39
41
48
51
50
0
0
54
64
78
77
78
87
90
94
81
68
106
182
199
199
199
200
202
201
0
0
202
0
0
202
203
203
0
202
0
202
0
0
202
201
202
202
201
0
202
201
201
201
0
201
182
182
182
182
182
183
0
0
0
184
184
185
185
185
186
0
187
188
0
189
0
190
191
192
192
180
141
0
0
0
86
81
0
53
51
48
67
0
0
32
32
31
33
40
45
73
42
83
60
0
41
0
55
57
56
52
56
0
62
69
68
86
0
0
100
0
78
0
200
201
0
201
202
202
202
203
202
0
203
0
203
0
0
0
0
202
202
0
202
202
202
202
202
0
0
202
0
202
201
201
182
0
182
182
0
183
183
0
183
184
0
185
0
185
0
186
0
0
188
0
189
190
0
191
0
183
141
0
89
0
71
76
78
80
76
68
78
0
0
35
0
0
34
33
44
72
45
92
64
49
43
44
50
57
63
0
77
60
51
60
65
66
85
88
99
76
58
141
189
199
0
0
202
0
0
203
203
0
0
203
203
203
203
203
203
0
202
203
0
0
202
202
202
0
202
202
202
201
201
201
182
181
182
0
182
182
183
183
0
183
184
0
0
185
0
186
187
188
188
189
189
190
191
188
0
0
122
85
0
73
72
69
67
62
0
66
0
57
0
0
31
0
36
0
57
59
55
0
56
51
49
49
54
0
64
68
77
59
61
63
64
66
69
82
79
0
75
116
182
190
0
196
196
200
202
203
204
204
204
203
203
204
204
203
203
203
203
0
202
0
202
0
202
202
0
202
201
0
202
201
181
0
0
0
182
182
0
183
0
183
183
184
184
0
186
186
0
188
188
189
189
188
186
180
149
0
85
72
0
59
69
0
69
60
57
67
79
55
41
0
32
31
31
43
55
54
67
96
54
0
52
0
0
58
0
74
68
0
60
0
64
0
70
0
0
80
0
82
0
190
196
200
198
197
193
201
0
0
204
203
204
204
204
203
0
203
0
203
203
202
202
202
202
0
202
202
0
0
201
201
181
181
181
181
181
182
182
182
183
0
183
184
0
185
186
186
187
188
187
189
189
189
177
138
98
83
70
61
51
51
0
48
0
51
51
56
0
54
37
37
29
31
31
0
0
58
75
89
64
47
48
0
0
51
57
0
63
61
64
66
69
65
73
83
88
77
96
82
87
166
196
199
196
191
175
175
0
0
204
204
204
204
204
204
204
203
203
203
0
203
203
0
202
202
202
202
202
202
202
202
181
0
181
0
0
182
182
182
183
0
183
183
184
0
185
186
0
188
188
0
0
184
140
105
83
71
66
0
54
51
56
0
46
47
0
51
0
0
0
37
31
0
29
36
46
57
0
73
0
49
48
0
50
0
65
0
52
52
0
68
70
78
74
78
77
73
89
77
0
110
0
184
186
174
144
0
170
199
205
204
204
204
204
204
204
203
203
203
203
0
203
203
203
202
202
0
202
202
202
202
181
181
181
181
181
182
0
0
182
0
183
0
0
184
185
186
187
188
188
189
189
149
119
87
0
63
55
48
45
0
55
55
49
41
52
50
59
45
54
0
38
39
36
0
0
53
61
0
49
0
54
60
65
63
62
70
68
62
63
69
73
78
78
0
77
78
94
77
61
73
0
134
123
0
0
124
162
0
203
0
205
0
204
204
204
203
203
204
203
0
203
0
0
202
203
202
0
202
202
202
181
181
181
181
181
181
0
0
183
183
0
183
184
184
185
186
187
188
189
189
175
131
98
71
0
55
44
47
58
0
52
47
48
46
46
45
59
45
46
58
46
39
43
0
42
51
53
45
0
58
62
66
59
0
50
0
59
0
71
0
73
75
81
0
79
0
83
0
66
56
54
57
63
76
102
130
151
186
201
205
205
0
205
0
204
204
204
204
203
203
0
203
0
203
203
203
202
202
0
202
181
181
0
0
0
0
181
182
182
183
182
183
184
184
0
186
187
188
189
0
0
124
75
0
0
48
49
54
63
59
56
53
0
46
47
46
59
52
44
53
57
43
41
46
49
50
50
44
51
60
73
0
61
60
58
57
57
59
58
64
70
80
76
0
0
79
83
75
70
62
0
62
65
81
0
134
145
189
0
203
204
205
204
204
204
204
204
0
204
203
203
203
203
203
0
0
203
202
202
203
181
180
180
181
0
181
181
181
182
182
183
0
184
184
185
186
187
188
189
190
149
0
65
63
53
0
50
50
62
0
57
0
55
48
0
46
49
60
0
53
62
57
42
53
64
58
55
0
0
69
72
0
59
68
59
50
49
51
54
0
67
68
71
75
77
74
75
72
0
73
0
0
59
80
101
130
163
178
191
202
205
205
0
205
204
0
204
0
204
0
203
0
203
203
203
203
203
203
0
203
180
180
180
180
181
0
181
181
0
182
0
183
184
185
186
186
187
0
0
189
143
86
58
55
51
48
0
0
60
0
0
53
55
57
55
53
51
0
64
61
65
65
57
0
62
70
60
0
51
76
75
0
0
61
71
67
59
57
0
0
63
67
72
78
81
0
78
74
0
0
60
54
56
65
0
0
0
0
0
202
204
204
0
0
204
0
204
204
204
0
203
0
203
203
203
203
203
0
0
202
179
0
180
180
181
180
180
181
181
182
182
183
0
0
186
0
0
188
189
188
0
79
54
45
0
50
0
57
54
60
56
0
0
59
63
58
55
55
59
0
72
73
69
72
71
77
66
60
0
75
83
73
66
72
65
51
55
56
55
0
68
73
74
79
84
0
76
79
0
71
63
58
0
80
0
100
0
161
183
200
200
204
204
204
205
204
204
0
204
0
204
204
204
203
204
203
203
203
203
203
179
179
179
180
180
180
180
181
0
182
183
183
184
185
185
186
187
187
0
189
148
77
51
46
40
0
51
46
47
49
56
0
55
0
0
68
64
66
67
0
0
81
74
77
0
80
71
74
0
0
95
0
73
70
76
78
79
81
77
69
73
77
80
83
84
0
84
0
69
72
65
0
72
98
107
118
107
128
165
187
202
202
0
0
0
204
204
204
0
204
204
204
0
204
204
204
204
0
0
203
179
179
0
179
180
0
180
180
181
181
182
183
184
185
0
186
186
187
188
189
178
98
57
50
48
46
47
52
0
0
0
0
57
64
0
75
75
77
77
0
85
0
81
82
86
0
0
91
95
106
120
119
107
89
87
91
91
85
74
65
63
69
71
77
87
0
80
79
0
72
66
78
78
90
133
151
148
111
0
196
198
0
204
0
205
0
204
0
204
204
204
0
204
204
203
204
204
0
203
203
178
179
179
179
180
179
0
0
181
181
182
183
183
184
185
186
0
0
0
189
186
129
63
0
51
0
49
0
47
47
46
53
0
68
78
81
0
81
87
0
92
95
97
95
0
97
112
122
122
0
132
131
128
122
110
114
122
105
95
79
68
64
68
75
85
89
93
98
0
0
80
95
0
82
125
151
160
0
171
0
203
0
205
205
205
0
0
204
204
204
204
204
204
0
203
204
204
204
0
203
178
179
0
179
179
0
180
180
180
0
181
0
182
183
0
185
0
0
187
188
189
0
83
52
46
37
0
38
40
0
43
52
64
74
83
86
0
91
95
102
107
112
116
0
0
129
0
142
0
0
145
0
146
0
147
141
135
0
116
105
101
94
87
82
84
0
83
83
86
92
0
0
0
84
112
0
159
139
188
0
206
206
205
205
205
205
205
204
204
204
204
204
204
204
204
204
0
204
203
203
178
0
0
178
179
0
179
179
180
180
180
181
182
182
183
0
185
186
187
188
188
180
108
0
56
41
0
36
0
0
29
42
0
89
95
98
98
98
104
108
0
126
133
138
145
151
155
157
0
152
152
154
160
0
163
167
171
166
0
0
135
133
131
128
123
0
90
0
87
79
0
69
82
93
104
127
153
0
193
205
0
206
205
205
205
205
0
0
0
204
204
204
204
204
204
204
0
204
0
203
178
0
0
0
178
178
0
179
179
180
0
180
181
182
183
184
184
0
0
186
188
187
0
65
58
51
39
36
25
24
25
38
0
0
107
106
98
0
0
101
0
116
124
137
145
149
0
162
160
157
158
164
168
0
165
160
163
161
160
0
139
147
154
163
159
148
97
71
71
69
69
73
83
0
107
0
124
0
193
203
206
206
206
0
205
205
205
0
0
204
0
204
0
204
204
0
204
204
204
204
177
178
178
178
178
178
178
178
179
179
179
180
180
0
182
183
184
0
186
186
187
188
0
73
55
58
43
35
0
0
0
47
0
0
104
95
81
70
64
58
60
69
88
105
128
0
147
154
154
157
0
162
163
160
150
0
0
0
0
113
117
136
150
161
166
164
118
77
0
73
74
0
0
91
91
0
0
0
205
205
206
0
0
205
0
0
205
0
205
204
204
204
204
204
0
204
0
204
204
204
177
177
0
177
178
178
0
0
178
178
178
0
180
180
181
0
183
184
0
186
0
0
181
101
52
58
51
34
31
31
35
66
101
96
90
0
85
84
0
65
62
69
71
88
107
121
132
0
0
155
162
160
149
143
136
0
106
106
98
0
144
158
0
155
153
0
138
0
64
72
78
0
0
0
114
130
152
0
0
0
206
206
206
0
205
0
205
205
205
205
204
204
0
204
204
0
0
204
204
203
178
177
177
177
0
177
177
177
178
178
0
178
179
179
180
0
0
0
184
0
186
187
188
0
62
55
53
0
33
31
49
90
108
0
77
0
94
105
112
108
100
86
77
86
97
101
111
119
131
153
163
164
0
0
139
130
0
0
121
138
147
147
145
145
154
0
152
92
60
67
77
0
0
118
133
182
197
205
206
206
0
206
206
205
0
205
205
205
205
205
205
0
0
0
204
0
204
0
204
204
177
177
0
177
0
176
177
177
177
0
178
178
178
179
180
0
181
0
183
0
0
186
188
181
115
53
54
46
0
38
0
104
112
88
109
116
0
125
130
132
127
119
108
86
79
82
0
105
126
153
172
179
0
162
134
115
127
134
0
0
169
0
181
183
161
152
159
101
71
60
58
83
0
139
0
202
203
205
0
206
206
206
206
205
205
205
205
205
205
0
204
204
205
0
0
204
204
204
0
204
177
177
177
177
177
176
176
0
176
0
177
177
178
179
179
0
180
181
182
184
185
185
187
188
167
71
52
49
38
0
0
0
0
117
116
108
96
86
83
0
0
0
72
76
72
64
78
0
123
152
176
187
174
133
0
103
76
71
79
106
131
143
168
182
0
169
0
110
79
69
84
0
169
0
196
201
205
205
0
206
0
0
205
205
205
205
205
0
0
205
205
204
204
205
205
204
204
204
0
204
177
176
177
177
176
176
176
176
176
176
177
177
178
0
0
179
0
0
182
0
184
0
186
188
186
0
71
54
68
0
71
0
107
119
107
79
67
57
58
62
75
88
83
49
65
69
0
77
101
125
138
142
136
126
109
0
80
84
0
94
95
118
0
172
184
186
0
111
0
94
149
188
199
0
205
203
0
206
206
206
206
206
205
0
205
0
205
0
205
205
205
205
205
204
204
204
204
0
204
204
177
0
0
177
176
176
175
176
176
176
0
177
177
177
178
0
0
180
181
0
183
184
185
0
189
167
116
0
0
109
60
53
118
114
90
65
47
74
86
75
0
97
0
66
72
77
68
0
122
0
166
0
106
0
105
0
85
93
93
112
140
85
108
0
174
0
157
88
0
153
168
0
204
204
205
205
0
206
205
0
0
206
205
0
205
205
0
205
0
205
205
205
205
0
205
204
204
204
0
204
177
177
176
176
0
176
175
0
176
176
176
177
0
177
178
178
0
0
180
182
183
184
185
186
187
157
89
0
0
66
91
0
0
105
85
83
85
0
0
84
0
0
89
86
83
0
58
0
0
171
0
141
115
156
120
110
96
0
0
134
150
152
140
142
167
182
170
92
131
177
170
0
0
205
205
0
206
0
0
206
205
0
0
0
0
0
205
0
205
205
205
205
205
0
205
0
0
0
204
204
176
176
176
177
176
176
0
0
175
175
175
176
0
176
177
178
178
0
180
181
182
183
184
0
186
160
89
96
0
81
0
114
0
110
0
101
97
0
0
91
0
97
96
89
91
0
56
83
130
171
188
0
107
167
139
0
120
120
124
142
157
0
165
170
173
187
166
132
164
183
0
201
204
205
204
205
0
205
0
206
206
205
0
0
205
205
205
205
205
0
0
205
205
0
205
0
0
204
204
204
176
176
0
176
176
176
0
175
175
0
176
176
176
0
177
177
178
179
180
181
182
182
0
0
185
167
90
0
0
95
107
128
110
119
116
0
115
119
116
106
103
101
0
102
104
0
48
105
138
169
0
160
0
177
0
147
133
135
142
151
166
177
0
0
183
0
163
0
179
170
175
204
204
205
0
205
205
0
0
206
0
205
205
205
206
205
0
206
205
205
0
205
205
0
0
205
204
204
204
204
176
176
176
176
0
176
176
0
175
0
175
175
176
176
0
0
178
179
180
181
0
182
183
184
0
179
103
99
120
90
119
0
111
121
120
118
118
118
115
110
110
115
119
115
107
82
87
120
0
168
186
187
159
170
177
171
159
0
154
156
163
174
180
185
188
189
0
170
183
163
196
204
204
204
204
205
0
205
205
206
206
206
0
0
206
205
205
206
0
0
205
205
205
205
205
205
204
0
204
204
175
176
0
0
176
0
175
175
175
174
175
175
175
176
0
177
0
179
180
180
181
182
182
183
184
185
0
0
104
0
128
135
117
114
123
120
120
119
120
0
0
125
0
114
101
80
108
128
0
170
189
196
185
0
176
0
0
169
167
163
163
171
179
0
191
0
0
170
180
0
202
204
204
204
205
205
205
205
205
0
206
206
206
206
206
206
206
205
206
205
205
0
205
205
205
0
205
204
0
204
175
175
176
175
175
0
175
0
175
175
0
175
176
176
177
177
178
178
0
180
180
181
181
182
0
0
168
111
84
109
131
135
0
114
118
121
126
127
0
130
130
125
119
106
85
106
116
124
140
169
195
203
0
0
0
0
165
166
0
167
0
177
0
190
177
173
193
183
167
0
204
204
204
0
0
205
205
0
0
0
206
205
0
206
0
0
0
206
205
206
206
205
205
205
205
205
0
205
204
204
175
175
0
0
0
175
0
0
0
175
0
175
176
0
177
177
0
0
0
179
180
0
0
0
183
184
183
123
79
108
0
136
130
128
114
113
127
129
132
132
131
0
108
89
96
0
0
111
125
161
191
189
194
192
167
147
164
0
167
170
173
180
187
168
173
0
193
195
158
0
204
0
204
204
205
0
205
0
206
206
0
0
0
206
0
206
0
206
206
0
0
0
205
205
205
205
205
205
205
205
175
175
175
175
175
0
0
174
175
175
175
0
0
177
177
177
178
178
179
178
179
0
181
0
0
184
185
145
90
97
0
135
0
125
125
120
108
109
0
116
110
106
105
0
95
119
122
90
111
153
173
138
180
189
0
164
143
142
0
0
0
152
155
181
194
197
193
195
148
181
203
204
204
204
205
205
0
205
206
0
206
206
206
206
0
206
0
206
206
206
0
205
0
0
0
0
0
205
205
205
175
175
0
175
0
0
175
176
175
175
175
176
0
176
177
177
177
178
178
178
179
179
180
181
0
0
0
168
120
91
122
134
127
126
125
124
126
127
128
127
127
0
112
92
84
0
68
69
0
155
0
110
142
0
158
0
164
0
157
154
168
183
189
191
193
196
193
179
170
0
203
204
204
0
0
205
205
205
0
206
0
206
206
206
0
206
0
206
206
206
206
206
0
0
205
205
205
205
205
204
175
176
0
174
175
175
175
175
0
175
176
176
176
0
177
177
0
177
178
178
178
179
179
180
181
0
185
0
135
0
119
0
0
124
0
126
0
129
0
128
128
124
113
0
0
0
92
125
0
0
178
180
163
157
0
172
164
0
171
173
182
186
189
0
195
196
196
184
192
0
0
204
0
204
0
205
205
205
206
206
206
0
206
206
206
206
206
206
206
206
0
205
205
0
205
205
205
0
205
205
175
175
0
175
175
176
0
175
0
0
0
176
176
176
176
177
177
177
0
0
0
179
179
180
0
182
0
0
0
0
0
132
125
125
124
125
127
130
130
129
0
121
114
111
104
95
99
136
0
0
180
196
0
0
178
176
170
164
174
0
0
187
0
195
196
0
194
195
203
204
0
0
204
0
205
205
205
206
0
0
206
206
0
206
206
206
206
206
0
206
206
0
206
205
206
205
0
205
205
205
175
175
174
175
0
175
0
175
176
175
0
176
176
176
0
0
0
177
0
0
178
178
0
180
0
181
0
185
0
113
107
0
125
124
0
126
0
130
129
0
127
120
0
117
114
113
115
0
0
141
0
196
190
180
179
178
176
169
0
182
188
188
190
0
0
194
195
0
202
0
0
204
0
205
205
205
0
206
206
206
206
206
206
206
206
206
206
0
206
0
0
0
0
0
205
205
0
205
205
205
175
175
175
0
0
0
176
0
176
176
176
176
176
176
0
176
177
177
177
178
178
0
179
179
180
181
183
185
171
117
98
0
127
123
124
0
127
129
129
128
123
120
122
125
127
128
127
0
169
0
0
0
189
185
183
183
183
176
167
181
189
191
192
195
195
194
189
0
0
204
0
0
0
205
205
0
205
206
206
206
206
206
206
0
206
206
206
206
206
206
206
206
205
0
205
0
205
205
205
205
175
175
174
0
0
176
0
0
176
0
176
176
176
176
176
176
0
177
177
177
0
0
179
179
0
181
182
184
185
162
141
0
128
123
122
0
126
127
127
125
0
0
129
0
131
0
125
0
143
153
156
164
177
189
0
191
190
0
174
0
0
191
194
195
196
196
0
0
202
203
204
0
204
205
205
0
206
206
0
206
0
0
0
206
206
206
206
206
206
206
206
206
206
206
205
205
205
205
0
205
175
174
175
175
175
175
0
0
176
176
176
176
176
0
176
176
177
177
177
177
0
179
179
179
180
181
0
184
185
187
188
178
0
123
120
0
122
124
125
123
127
0
125
0
118
0
118
0
129
0
152
0
162
167
0
190
0
181
182
179
190
191
193
0
196
197
198
0
0
203
204
204
205
206
205
206
0
206
0
206
206
206
0
0
0
0
206
206
0
0
0
0
206
205
206
205
205
0
205
205
175
175
0
175
175
0
176
0
176
176
176
0
175
175
175
0
176
177
177
177
0
178
179
0
180
0
182
183
185
0
187
0
132
124
121
121
122
123
123
127
0
113
100
0
0
90
99
0
0
113
119
0
143
146
153
162
0
0
181
0
191
192
195
195
199
199
0
0
203
0
204
204
205
205
205
206
0
206
207
206
206
0
0
206
206
206
0
0
206
0
206
0
206
206
206
205
205
205
205
205
175
0
0
0
0
0
0
176
0
0
176
175
175
175
0
175
176
176
177
0
178
178
0
179
180
180
182
183
184
186
187
188
142
125
121
120
119
123
0
132
127
81
0
80
93
109
0
134
148
144
142
0
155
155
144
122
110
145
0
184
191
0
194
196
199
200
202
0
0
203
204
0
205
205
205
206
0
0
0
206
207
206
206
206
206
0
0
206
0
0
206
206
206
206
0
0
205
205
205
205
175
175
175
175
175
175
175
175
175
175
0
175
175
0
0
0
175
176
0
177
0
177
0
0
180
180
182
182
183
185
186
188
154
125
121
0
120
0
123
132
129
109
0
99
102
101
107
132
0
0
158
165
173
175
0
165
148
146
0
184
190
190
0
197
199
200
202
0
0
203
204
204
205
205
205
206
0
207
206
0
206
206
206
206
206
206
206
206
0
0
206
206
206
205
206
206
0
0
205
205
174
175
175
175
175
175
175
175
0
175
0
175
174
174
174
0
175
176
0
176
177
177
0
178
179
0
181
182
183
184
0
187
170
126
0
123
122
121
123
129
129
122
118
0
117
0
120
0
133
0
149
164
176
0
187
188
0
169
174
185
191
0
193
197
198
200
0
202
0
204
204
204
0
0
205
0
206
206
206
0
206
206
206
206
206
0
206
206
0
206
206
0
206
206
206
0
0
205
205
205
175
175
174
175
175
175
175
0
174
174
174
174
174
0
174
0
175
175
176
176
177
0
177
178
179
0
180
181
0
183
185
187
183
130
0
0
122
120
122
121
122
0
0
121
127
133
134
145
143
142
144
0
179
186
0
185
183
180
181
186
192
194
195
0
197
199
201
201
202
204
204
205
205
205
205
206
206
206
206
206
206
206
206
0
206
206
0
206
0
0
206
206
206
206
206
205
205
205
205
205
175
175
174
175
0
175
0
0
174
174
174
174
174
0
174
175
175
176
176
176
176
177
177
0
179
180
180
181
182
183
184
186
0
146
0
0
122
0
119
118
118
0
119
0
131
139
0
151
154
154
0
166
176
0
183
182
0
0
183
186
192
192
194
0
196
199
200
201
202
0
0
205
0
0
0
206
206
206
206
206
206
0
0
206
206
206
0
206
206
206
206
206
206
0
206
206
0
205
205
205
175
175
174
175
175
175
175
175
174
174
174
174
174
174
0
174
0
175
176
176
0
177
177
178
179
180
0
181
182
183
184
0
0
152
123
0
121
121
120
117
115
115
117
0
131
140
148
149
152
159
162
166
174
179
180
179
180
182
185
187
191
192
189
190
196
0
200
201
202
203
203
204
205
0
0
206
206
206
206
0
206
206
0
206
206
206
206
206
206
0
206
206
0
205
206
205
205
0
205
205
174
0
0
174
0
175
174
0
174
0
0
174
0
174
174
174
175
176
176
0
176
177
177
178
0
0
181
181
182
183
184
185
186
153
0
118
118
117
118
118
113
113
116
121
132
136
0
141
154
170
171
0
170
0
0
180
180
183
185
187
186
188
0
0
197
198
200
0
202
0
203
204
205
205
206
0
206
206
206
206
206
0
206
206
0
206
206
0
206
206
206
206
206
206
206
0
205
205
205
205
174
174
174
0
0
174
174
174
174
174
0
174
0
173
0
174
175
175
175
176
0
177
0
0
0
0
0
181
0
0
184
185
186
153
126
0
115
115
0
116
114
113
115
121
130
0
134
140
154
166
172
176
176
178
178
182
182
183
186
186
0
182
180
187
195
197
199
200
201
202
203
204
0
205
206
206
206
206
206
206
206
0
0
0
206
206
206
206
206
206
206
206
206
206
206
0
0
205
205
205
174
0
174
174
0
0
0
174
174
174
173
173
173
173
173
0
0
175
175
175
176
177
177
178
0
0
0
181
182
0
184
0
186
0
0
118
0
111
0
115
115
116
117
120
127
133
0
143
0
0
172
0
177
180
181
0
185
184
184
179
0
175
186
188
0
197
199
199
200
202
203
0
204
204
0
206
206
0
0
206
206
206
206
206
206
206
206
206
206
206
206
206
206
0
0
205
205
205
205
205
174
173
173
173
0
174
173
173
0
173
173
173
0
172
173
173
174
0
175
175
175
176
0
0
179
179
180
180
181
0
183
0
186
151
0
118
113
105
107
112
0
115
0
122
130
136
135
150
155
155
165
178
177
179
0
180
181
182
174
166
0
183
190
187
194
0
197
199
200
201
203
204
204
204
0
206
206
0
0
206
0
206
206
0
206
206
206
206
206
206
206
0
0
206
206
205
206
205
205
203
173
0
0
173
173
173
173
0
173
0
172
172
172
172
172
172
173
174
0
174
175
0
0
0
177
179
179
0
181
0
183
184
185
149
128
0
0
109
100
105
110
0
117
0
131
137
141
0
156
0
163
168
174
0
0
177
176
171
158
0
0
185
192
188
193
195
197
199
200
0
202
0
204
0
206
206
206
206
206
206
206
206
206
206
206
0
206
206
206
206
206
206
206
206
206
205
0
0
205
205
173
172
173
172
0
173
0
0
172
172
172
0
0
171
171
171
0
173
0
173
174
0
0
0
0
0
178
178
179
180
0
183
0
147
127
0
116
110
103
0
102
102
0
121
0
0
142
146
151
155
0
162
166
0
0
0
0
150
0
175
183
185
0
187
192
194
0
0
200
201
202
0
205
0
206
207
207
206
206
206
206
0
206
206
206
0
206
206
205
0
205
206
206
206
206
206
205
205
205
205
172
173
172
172
172
172
172
171
171
171
171
170
170
170
170
170
171
171
172
172
172
173
173
174
0
0
176
177
177
178
180
0
182
0
127
122
116
112
107
100
0
98
103
112
123
0
138
0
142
141
144
147
148
147
151
150
149
0
173
182
0
191
0
187
191
0
195
0
199
201
0
203
204
205
206
206
207
207
206
206
206
0
206
206
206
206
206
206
205
205
206
205
0
206
0
205
205
205
0
205
172
172
0
0
171
171
172
171
0
170
0
170
0
169
170
0
170
170
171
171
171
172
0
173
173
174
174
175
176
177
0
180
181
141
127
123
119
0
0
102
100
0
0
104
109
0
121
0
128
0
0
0
133
138
145
154
157
164
0
186
188
192
193
186
190
0
194
197
0
201
0
203
0
0
205
206
207
0
206
207
0
206
0
206
206
206
206
206
0
0
0
206
206
206
206
205
205
205
205
205
172
172
171
171
171
171
171
171
170
170
170
170
170
169
0
169
0
170
170
170
171
0
172
0
0
173
174
175
0
176
178
179
0
0
0
125
0
117
112
107
102
101
102
106
108
112
0
120
125
128
0
0
145
151
155
0
0
0
0
185
188
191
0
148
153
176
0
0
198
201
202
202
204
0
0
206
207
207
206
206
207
0
206
206
0
206
206
206
206
206
206
0
205
205
206
205
0
205
205
205
171
171
171
0
171
171
170
170
170
170
170
170
169
169
169
0
0
169
0
170
171
171
171
172
0
0
173
0
175
175
0
155
0
129
126
126
123
122
117
113
106
0
103
107
112
117
0
125
0
136
0
154
161
0
161
168
172
175
0
185
189
0
190
91
49
83
121
0
185
0
0
0
204
205
206
206
207
207
207
0
206
206
206
206
206
206
0
206
205
205
0
0
205
0
0
206
0
205
205
205
171
171
0
171
0
170
170
169
169
169
169
169
169
168
168
0
168
169
169
169
170
170
171
0
171
172
173
171
0
0
0
0
48
122
0
126
124
125
0
0
0
107
107
107
112
0
127
0
140
0
156
0
175
174
175
178
0
0
182
185
0
0
0
92
0
22
25
46
97
142
177
198
204
205
206
206
0
207
0
206
206
206
206
206
206
206
0
0
0
0
206
0
205
0
206
205
205
205
0
205
171
170
0
170
170
170
0
169
169
168
168
168
0
0
168
0
0
168
168
0
169
170
0
171
171
171
0
106
50
0
19
18
47
120
0
127
126
128
127
122
114
108
0
109
112
117
127
139
0
155
0
174
0
180
183
180
180
181
181
0
0
190
190
97
20
0
19
23
28
36
72
133
0
204
206
206
206
207
0
207
0
206
206
206
0
206
206
206
205
205
205
205
205
205
205
205
205
205
205
205
170
169
169
169
169
169
168
0
168
167
167
167
167
0
167
167
0
167
168
168
168
169
169
0
0
128
62
26
22
20
17
0
0
0
125
128
128
127
0
125
118
0
108
109
0
0
128
141
0
162
169
176
0
0
184
0
181
183
0
182
0
190
0
107
20
0
18
21
26
26
23
34
87
155
195
0
207
207
207
207
0
206
0
206
206
206
206
205
205
205
0
205
0
205
0
0
0
205
205
205
169
0
0
168
0
168
167
166
0
166
165
166
166
166
167
0
167
167
167
167
168
168
168
160
101
0
25
21
20
18
16
16
62
117
124
127
129
0
130
128
121
112
0
108
110
117
124
141
0
0
176
0
183
183
183
184
181
182
0
182
186
0
190
116
20
19
19
20
23
24
21
0
27
47
113
181
205
207
0
206
0
0
0
206
206
206
206
0
0
0
0
0
0
205
205
205
205
205
205
205
169
168
0
167
0
0
166
166
166
165
164
165
165
0
166
0
166
166
166
167
0
167
160
94
33
26
23
21
19
18
16
17
0
114
0
127
130
131
131
0
125
117
112
110
0
0
120
130
157
174
180
183
0
0
182
0
0
182
180
184
189
190
191
124
0
25
18
0
22
22
21
20
0
23
32
0
161
0
207
207
0
206
206
0
0
206
206
206
0
205
0
0
205
205
205
205
0
205
0
205
168
167
167
166
166
0
165
0
0
164
164
164
0
164
0
165
165
165
165
0
166
164
106
34
28
23
0
20
19
0
14
43
96
113
119
126
0
132
0
0
128
122
115
0
113
118
119
117
148
0
186
183
183
184
182
184
183
181
0
184
188
0
190
130
39
47
30
18
21
0
21
20
20
0
24
27
59
148
202
0
0
207
206
206
0
0
206
206
206
0
205
205
205
0
205
205
205
205
205
205
167
166
166
165
166
165
164
0
0
163
0
164
163
164
164
164
164
164
164
164
0
134
43
30
24
22
0
18
15
0
24
0
100
110
0
125
129
131
136
135
0
0
120
113
0
119
121
115
136
0
0
0
182
0
184
0
183
179
181
184
188
189
0
0
28
41
52
25
0
0
19
20
0
21
0
22
0
52
141
199
207
0
206
206
207
206
206
206
205
0
205
205
205
205
0
0
0
205
205
205
165
165
165
165
164
163
163
164
163
163
0
163
163
0
162
163
0
0
163
163
159
77
32
28
23
0
16
0
16
17
62
93
100
108
116
0
127
132
0
138
136
130
126
119
0
120
0
126
130
153
173
0
183
0
185
0
183
0
0
185
188
189
0
0
0
32
49
51
21
0
17
0
20
21
0
20
21
24
0
0
197
207
0
206
206
0
206
0
0
205
0
205
0
205
0
205
0
205
205
205
164
164
163
0
162
162
162
162
162
162
0
162
162
162
162
162
162
162
162
163
0
0
0
25
17
0
17
20
23
49
84
100
101
107
115
120
0
0
137
140
139
135
132
124
121
126
131
135
0
150
163
173
181
184
184
183
182
181
0
186
188
188
187
0
60
27
0
61
46
30
0
19
0
18
19
19
19
20
0
0
124
0
0
206
0
206
206
0
206
0
0
205
205
0
205
0
0
0
0
205
164
0
0
162
0
161
161
161
0
0
161
161
161
161
161
0
161
162
162
159
107
0
33
20
15
16
18
21
26
57
0
104
102
0
113
0
0
129
135
0
143
140
136
130
0
0
0
140
145
0
162
171
0
0
183
182
180
180
184
187
188
0
182
148
72
0
42
60
59
50
28
25
0
0
0
17
18
19
0
0
0
125
0
207
207
206
206
206
205
206
205
205
205
205
0
0
205
0
0
204
163
0
161
161
161
0
161
160
160
160
0
160
160
160
0
160
161
161
0
118
0
0
34
21
15
17
19
21
0
33
80
104
103
0
112
117
0
127
0
141
147
146
142
138
0
135
0
144
149
0
0
169
176
0
182
0
178
180
184
185
0
0
172
130
69
30
44
0
60
57
37
0
0
23
19
16
16
0
18
19
24
0
129
201
206
206
206
0
206
205
205
205
205
0
0
204
204
204
204
204
162
161
160
160
160
160
160
159
160
160
160
160
160
160
160
159
159
160
142
60
40
34
0
28
16
18
0
22
25
28
0
93
102
0
110
0
0
123
131
141
147
150
0
144
139
141
0
0
151
158
0
0
0
180
179
175
177
180
0
183
0
0
152
106
61
37
48
56
0
0
0
38
47
0
22
20
18
16
16
18
19
25
45
146
205
206
206
0
205
0
0
0
204
205
204
204
204
204
0
204
161
0
160
160
160
160
159
0
159
159
159
159
159
159
159
159
159
160
138
50
37
33
0
35
19
17
20
22
24
26
0
0
93
0
113
114
116
120
0
0
145
0
154
150
145
146
147
150
155
0
0
169
174
0
0
172
0
179
180
177
170
0
120
89
0
40
48
49
0
53
40
0
0
46
25
21
20
18
16
16
17
0
29
66
181
206
206
206
0
205
205
0
204
204
205
0
204
204
204
204
160
0
0
159
159
159
0
0
0
159
158
0
158
158
158
158
158
159
155
0
36
31
0
0
31
0
19
22
23
0
0
30
60
101
112
0
116
116
0
0
0
154
157
155
150
149
0
0
156
160
164
168
172
174
172
170
171
173
171
167
150
125
100
71
0
44
46
45
0
45
0
41
55
50
34
0
19
19
18
17
16
16
22
0
0
202
0
205
0
0
0
204
204
0
204
0
204
204
204
204
160
160
0
0
159
159
158
158
158
158
158
0
158
0
158
0
158
158
156
134
51
29
28
28
35
0
20
21
22
25
0
28
32
70
0
0
116
117
123
130
141
153
162
161
155
0
151
0
156
161
0
164
0
170
0
0
164
164
156
143
0
101
80
46
51
0
41
0
42
38
29
49
55
46
0
27
18
16
17
18
17
16
0
29
0
178
206
206
205
205
0
205
0
0
0
0
204
204
0
204
160
159
0
158
159
158
158
0
157
157
0
157
157
157
157
157
157
142
97
0
27
24
27
0
28
32
31
22
0
22
24
0
0
35
75
109
0
113
119
127
137
152
161
163
160
158
155
156
156
0
160
163
165
161
159
157
154
148
130
110
96
76
43
39
40
0
0
35
34
25
39
52
49
40
0
23
0
0
15
17
17
0
0
27
0
0
206
206
205
205
0
205
0
0
204
204
204
204
204
204
159
159
158
158
0
0
157
157
157
156
157
156
156
0
156
0
144
83
0
25
23
21
22
24
0
26
0
34
0
30
0
24
25
0
36
86
110
115
0
122
133
0
158
164
164
164
0
157
153
152
153
155
157
154
149
145
136
117
100
86
59
0
38
39
36
32
32
31
24
33
48
0
43
37
28
23
19
17
16
15
15
0
25
0
58
159
206
206
205
0
205
205
205
204
204
204
204
204
204
204
158
158
157
157
157
157
156
157
157
0
155
155
155
155
153
130
76
35
29
24
21
21
19
19
22
0
25
27
31
38
38
0
0
30
33
40
84
110
118
120
129
0
155
164
0
168
167
163
155
148
146
145
142
0
129
120
107
91
67
0
34
37
0
0
31
31
28
22
0
44
49
0
39
32
25
22
20
20
20
17
0
0
0
0
0
186
0
205
205
205
205
205
204
204
0
204
204
204
204
203
157
157
0
157
156
156
155
155
155
155
154
0
154
144
106
0
0
28
0
26
22
20
0
19
17
18
0
22
24
29
34
39
36
0
38
0
44
90
115
0
126
137
0
164
173
0
170
165
157
148
140
134
0
121
0
99
79
45
32
33
34
0
0
0
0
27
21
24
39
46
44
39
35
29
25
24
23
0
22
17
17
0
51
63
123
202
0
205
0
205
205
205
0
204
204
204
0
0
204
203
156
0
155
0
155
155
154
154
0
0
0
150
0
78
39
32
29
26
26
25
0
0
19
19
0
0
0
17
19
34
48
67
92
0
33
34
0
45
79
106
123
130
0
0
171
175
172
165
0
141
130
122
113
104
0
53
31
31
0
34
33
32
32
32
0
21
21
36
46
43
38
36
34
29
28
0
0
26
20
31
0
55
60
89
178
205
205
205
0
204
205
204
204
204
0
204
204
204
203
203
155
155
154
154
154
0
152
0
0
0
141
99
52
35
31
0
28
26
25
25
24
24
22
0
19
19
0
13
14
19
0
45
41
51
25
26
0
31
33
38
67
98
131
157
170
0
169
0
144
0
0
108
93
0
0
31
31
31
32
32
30
30
30
28
22
24
36
45
0
46
0
0
38
34
32
31
33
38
44
54
56
59
68
143
203
205
205
205
205
205
205
204
204
204
204
204
204
204
203
203
153
0
0
0
152
152
151
151
147
0
73
40
0
32
29
29
28
26
25
0
0
24
23
21
20
0
18
16
14
0
0
44
0
20
0
0
25
26
28
30
32
0
0
106
156
168
0
145
133
116
0
62
0
30
33
33
32
30
29
27
25
24
0
0
35
39
46
45
0
38
36
31
39
46
47
51
55
56
56
56
0
51
45
0
173
0
0
205
0
0
205
205
204
204
204
204
0
0
0
203
151
151
150
150
149
149
149
0
0
51
36
33
32
0
0
29
28
0
26
26
0
24
24
23
23
20
0
0
18
0
18
0
40
0
0
19
20
23
25
27
29
30
0
0
0
0
0
125
96
60
0
31
30
31
31
32
32
29
27
22
0
26
31
0
0
41
46
0
48
45
43
0
49
52
56
56
53
0
50
43
37
32
34
0
63
124
0
0
205
205
205
205
0
204
204
204
204
204
203
203
149
149
147
147
0
0
0
78
41
35
33
33
32
31
29
0
0
27
0
0
26
0
25
0
23
23
21
20
0
18
20
39
39
16
18
21
23
0
19
19
24
29
32
31
28
33
0
43
34
0
30
30
30
30
30
29
30
30
30
0
0
0
0
35
36
0
45
47
49
50
0
52
54
0
0
44
38
34
0
29
31
0
36
0
41
45
0
120
171
198
204
205
205
205
204
204
204
0
203
203
147
146
145
145
0
105
56
37
34
32
0
0
31
30
0
29
28
0
27
0
26
0
25
24
23
23
23
21
20
20
21
0
0
0
19
20
0
26
0
0
21
21
22
22
26
31
33
33
34
33
34
33
33
33
0
34
35
34
33
33
0
34
36
0
39
42
45
45
47
0
46
43
38
0
28
25
27
0
30
33
34
34
37
37
40
40
0
45
58
107
0
201
0
205
0
204
203
0
203
203
145
144
0
0
77
0
0
0
31
30
31
0
31
29
29
28
28
28
28
0
26
26
0
0
0
24
0
22
21
0
22
32
40
0
24
23
0
25
0
27
26
25
23
24
26
28
29
30
30
30
32
32
0
31
0
31
32
0
38
37
0
0
35
0
39
39
35
0
30
0
0
0
26
25
28
29
29
31
33
0
0
0
37
38
39
0
0
41
42
47
60
126
187
0
205
204
204
204
203
203
143
137
102
52
35
0
31
0
30
30
31
30
0
29
29
29
28
28
0
27
0
0
26
26
25
0
24
22
0
22
22
29
0
24
25
26
0
28
27
27
0
27
26
26
25
24
23
22
22
21
21
20
20
0
0
0
0
23
33
43
38
34
32
30
0
24
26
26
27
0
28
0
29
0
0
0
32
0
35
35
36
36
37
39
38
39
40
39
0
0
46
0
90
167
0
0
204
0
203
203
125
77
40
34
0
31
29
30
30
0
30
31
30
0
29
28
28
29
28
27
26
28
0
26
26
25
0
23
0
0
23
27
39
25
0
25
27
26
28
0
28
0
31
33
33
30
29
27
25
23
22
20
0
17
16
14
13
19
0
39
38
26
24
25
0
0
28
30
30
32
32
32
32
32
34
35
0
0
36
36
37
37
39
39
0
39
39
40
41
42
43
45
49
67
140
195
204
204
203
203
52
35
31
0
29
30
29
0
30
30
0
30
31
29
0
28
28
28
27
0
27
26
0
27
26
26
24
24
0
22
0
0
0
30
0
0
26
26
28
28
27
0
27
31
0
32
30
28
0
24
23
21
20
18
17
15
13
30
46
34
0
28
28
28
29
29
32
34
34
35
34
34
0
34
36
36
36
35
0
0
0
0
38
39
39
39
40
0
41
41
43
44
45
49
0
113
185
203
203
203
33
31
30
30
30
29
0
0
30
0
29
0
30
0
30
0
30
0
28
28
28
28
27
26
26
26
25
0
23
23
0
25
33
38
0
27
0
29
31
0
0
31
32
33
0
33
32
30
28
26
0
22
21
20
18
15
15
37
40
35
0
31
31
0
32
0
34
35
35
37
36
36
36
0
39
37
0
38
40
40
40
39
38
40
40
40
41
40
41
0
43
44
44
45
0
54
97
179
0
203
30
30
0
0
31
0
29
0
30
30
30
0
29
29
0
0
0
28
28
0
0
27
0
26
0
26
26
24
24
23
24
26
28
0
27
27
28
29
31
31
32
32
33
33
33
33
32
0
0
0
0
0
0
21
19
16
18
0
38
0
33
31
32
34
35
34
37
37
37
38
0
39
37
0
39
39
39
39
0
42
41
0
39
41
40
40
0
39
40
0
41
42
43
43
44
0
54
91
179
203
30
29
29
30
29
29
29
30
30
30
30
30
30
28
0
29
0
0
0
0
28
27
26
27
27
0
0
25
24
0
24
26
0
0
29
28
0
0
32
31
0
33
34
34
33
0
32
31
29
28
27
26
23
0
19
0
23
46
0
38
32
0
33
34
35
36
37
39
38
39
39
39
38
39
0
40
0
0
43
43
44
42
0
39
0
40
41
39
39
39
40
0
43
43
44
47
0
0
0
187
29
29
29
29
29
30
29
30
30
32
31
31
0
30
29
0
28
28
28
28
28
28
27
0
27
27
26
26
25
24
0
26
0
43
31
29
29
30
31
0
31
0
33
34
0
33
0
31
31
29
28
0
23
21
19
0
26
46
44
0
33
34
0
0
36
36
37
39
39
0
40
39
40
40
41
0
40
40
0
44
43
0
38
38
40
41
42
0
39
0
39
39
0
0
0
46
47
49
55
115
30
29
29
30
30
31
30
31
30
31
31
31
30
30
29
29
29
28
30
29
28
28
27
27
27
27
26
26
25
25
24
25
28
39
33
28
30
29
31
31
31
32
33
35
33
34
32
32
30
29
28
26
24
21
19
17
30
45
45
42
33
33
35
36
37
38
39
39
39
37
39
40
41
42
41
39
39
37
39
42
43
39
37
39
41
40
40
39
38
38
38
39
40
43
43
43
46
48
51
58
