P2
# Created by GIMP version 2.10.34 PNM plug-in
100 100
255
183
183
183
183
184
184
184
184
185
185
186
186
186
187
187
188
188
189
189
189
189
190
190
190
191
192
193
193
194
194
195
195
196
194
191
186
164
140
184
184
186
178
153
119
110
126
137
143
145
133
127
132
122
134
145
147
153
175
199
201
200
201
201
200
200
199
199
199
200
199
200
199
199
200
200
200
200
200
201
201
201
201
201
201
201
200
200
200
200
200
200
200
200
200
200
200
200
200
200
199
183
183
183
184
184
184
184
184
185
185
186
186
187
187
188
188
188
189
189
189
190
190
190
191
192
192
193
194
194
195
196
196
196
196
185
178
136
140
175
172
166
153
121
105
112
115
105
116
117
92
81
79
102
119
131
135
135
137
155
185
193
197
200
200
200
199
200
200
199
199
200
200
200
200
200
200
201
200
201
201
201
201
201
201
201
201
200
200
200
200
200
200
200
200
200
200
200
200
199
199
182
183
183
183
184
184
184
184
185
185
186
186
186
187
187
188
188
189
189
190
190
190
191
192
192
193
193
194
194
196
196
194
196
189
179
168
121
129
126
102
97
81
79
90
78
90
84
78
78
77
79
62
70
79
81
111
125
121
129
144
171
179
192
199
199
200
200
200
200
200
199
200
200
200
200
200
200
200
200
201
201
201
201
201
201
201
201
201
200
200
200
200
200
200
200
200
200
200
200
199
182
183
183
183
183
184
184
184
185
185
185
186
186
186
187
188
188
189
189
190
190
191
191
192
193
193
193
192
195
196
196
194
194
178
161
129
95
98
93
81
74
74
70
65
63
85
74
56
48
50
61
71
67
74
72
68
71
78
83
92
106
122
150
178
198
200
199
199
200
200
200
200
200
200
200
201
201
201
200
201
201
201
201
201
201
201
201
201
201
200
201
200
200
200
200
200
200
200
200
200
182
183
183
183
183
184
184
184
184
185
185
186
186
187
187
188
188
188
189
189
190
191
191
192
192
192
191
182
194
196
195
188
166
129
106
89
70
71
70
66
61
61
54
53
49
78
69
45
41
44
51
61
58
69
76
80
78
70
75
81
85
81
91
118
166
196
200
200
200
200
200
200
200
200
200
200
201
201
201
201
202
202
202
201
201
201
202
201
201
201
201
201
201
200
201
201
201
200
200
200
182
182
183
183
183
183
184
184
185
185
185
186
186
186
186
187
188
188
189
190
190
191
192
192
193
189
182
167
192
194
187
176
146
114
83
67
51
57
57
50
46
51
47
54
57
67
76
60
43
42
55
51
53
60
66
74
78
72
67
79
88
77
75
73
111
165
196
201
200
200
200
200
200
201
200
200
201
201
201
201
202
202
202
202
202
201
201
201
201
201
201
201
201
201
201
201
201
200
200
200
182
182
182
182
183
183
184
184
185
185
185
185
186
186
186
187
188
188
189
189
190
191
191
192
193
174
177
158
182
192
188
178
139
93
69
65
50
55
48
42
37
39
39
40
56
66
65
70
50
53
60
59
60
68
70
78
68
72
65
80
90
92
76
62
68
115
173
201
201
201
200
201
201
201
201
201
202
201
202
201
202
202
202
202
202
202
202
201
201
201
201
201
201
201
201
201
201
201
201
201
182
182
182
182
183
183
184
184
184
185
185
185
185
186
186
187
187
188
189
189
190
190
191
192
189
157
161
175
152
174
167
123
86
67
58
65
51
46
41
35
28
31
37
40
52
72
58
71
39
45
43
52
59
58
52
56
57
67
64
89
102
85
88
85
57
74
144
194
199
200
200
200
201
201
202
202
202
202
202
202
202
203
202
202
202
202
202
202
202
201
202
201
201
201
201
201
201
201
201
200
182
182
182
182
182
183
183
184
184
184
185
185
185
186
187
187
187
188
188
189
190
191
191
192
191
172
144
144
123
131
124
102
75
65
54
52
61
55
38
37
31
30
34
40
47
74
50
74
46
39
41
48
51
50
45
52
54
64
78
77
78
87
90
94
81
68
106
182
199
199
199
200
202
201
202
202
202
202
202
202
203
203
202
202
202
202
202
202
202
201
202
202
201
201
202
201
201
201
201
201
182
182
182
182
182
183
183
183
184
184
184
185
185
185
186
187
187
188
188
189
190
190
191
192
192
180
141
137
115
84
86
81
65
53
51
48
67
69
58
32
32
31
33
40
45
73
42
83
60
40
41
49
55
57
56
52
56
69
62
69
68
86
95
98
100
72
78
171
200
201
201
201
202
202
202
203
202
203
203
202
203
203
202
202
202
202
202
202
202
202
202
202
202
202
202
202
202
202
201
201
182
181
182
182
182
183
183
183
183
184
184
185
185
185
186
186
187
188
188
189
189
190
191
191
188
183
141
116
89
78
71
76
78
80
76
68
78
62
56
35
31
30
34
33
44
72
45
92
64
49
43
44
50
57
63
70
77
60
51
60
65
66
85
88
99
76
58
141
189
199
201
201
202
201
203
203
203
204
203
203
203
203
203
203
203
203
202
203
202
202
202
202
202
202
202
202
202
201
201
201
182
181
182
182
182
182
183
183
183
183
184
184
185
185
186
186
187
188
188
189
189
190
191
188
185
161
122
85
75
73
72
69
67
62
64
66
78
57
49
35
31
30
36
33
57
59
55
101
56
51
49
49
54
58
64
68
77
59
61
63
64
66
69
82
79
86
75
116
182
190
195
196
196
200
202
203
204
204
204
203
203
204
204
203
203
203
203
202
202
202
202
202
202
202
202
202
201
202
202
201
181
181
181
181
182
182
182
183
183
183
183
184
184
185
186
186
187
188
188
189
189
188
186
180
149
115
85
72
62
59
69
71
69
60
57
67
79
55
41
34
32
31
31
43
55
54
67
96
54
43
52
52
52
58
64
74
68
63
60
67
64
62
70
77
91
80
96
82
138
190
196
200
198
197
193
201
204
204
204
203
204
204
204
203
204
203
203
203
203
202
202
202
202
202
202
202
202
202
201
201
181
181
181
181
181
182
182
182
183
183
183
184
184
185
186
186
187
188
187
189
189
189
177
138
98
83
70
61
51
51
53
48
50
51
51
56
73
54
37
37
29
31
31
34
44
58
75
89
64
47
48
43
45
51
57
61
63
61
64
66
69
65
73
83
88
77
96
82
87
166
196
199
196
191
175
175
195
204
204
204
204
204
204
204
204
203
203
203
203
203
203
203
202
202
202
202
202
202
202
202
181
181
181
181
181
182
182
182
183
183
183
183
184
185
185
186
187
188
188
189
188
184
140
105
83
71
66
60
54
51
56
55
46
47
55
51
65
53
43
37
31
33
29
36
46
57
65
73
52
49
48
47
50
58
65
54
52
52
64
68
70
78
74
78
77
73
89
77
79
110
166
184
186
174
144
141
170
199
205
204
204
204
204
204
204
203
203
203
203
203
203
203
203
202
202
202
202
202
202
202
181
181
181
181
181
182
182
182
182
183
183
183
184
184
185
186
187
188
188
189
189
149
119
87
68
63
55
48
45
53
55
55
49
41
52
50
59
45
54
50
38
39
36
43
41
53
61
51
49
52
54
60
65
63
62
70
68
62
63
69
73
78
78
74
77
78
94
77
61
73
119
134
123
122
104
124
162
195
203
204
205
205
204
204
204
203
203
204
203
203
203
203
203
202
203
202
202
202
202
202
181
181
181
181
181
181
182
182
183
183
183
183
184
184
185
186
187
188
189
189
175
131
98
71
64
55
44
47
58
59
52
47
48
46
46
45
59
45
46
58
46
39
43
41
42
51
53
45
49
58
62
66
59
53
50
54
59
62
71
74
73
75
81
77
79
85
83
79
66
56
54
57
63
76
102
130
151
186
201
205
205
205
205
204
204
204
204
204
203
203
203
203
203
203
203
203
202
202
202
202
181
181
180
181
181
181
181
182
182
183
182
183
184
184
185
186
187
188
189
190
157
124
75
65
60
48
49
54
63
59
56
53
48
46
47
46
59
52
44
53
57
43
41
46
49
50
50
44
51
60
73
68
61
60
58
57
57
59
58
64
70
80
76
76
74
79
83
75
70
62
57
62
65
81
117
134
145
189
199
203
204
205
204
204
204
204
204
204
204
203
203
203
203
203
203
203
203
202
202
203
181
180
180
181
181
181
181
181
182
182
183
183
184
184
185
186
187
188
189
190
149
103
65
63
53
50
50
50
62
60
57
58
55
48
46
46
49
60
56
53
62
57
42
53
64
58
55
48
51
69
72
67
59
68
59
50
49
51
54
61
67
68
71
75
77
74
75
72
71
73
68
64
59
80
101
130
163
178
191
202
205
205
205
205
204
204
204
204
204
204
203
203
203
203
203
203
203
203
203
203
180
180
180
180
181
180
181
181
181
182
183
183
184
185
186
186
187
188
189
189
143
86
58
55
51
48
57
58
60
61
55
53
55
57
55
53
51
53
64
61
65
65
57
61
62
70
60
53
51
76
75
69
61
61
71
67
59
57
58
60
63
67
72
78
81
78
78
74
74
69
60
54
56
65
82
121
158
186
201
202
204
204
205
204
204
204
204
204
204
204
203
203
203
203
203
203
203
203
203
202
179
180
180
180
181
180
180
181
181
182
182
183
184
185
186
186
187
188
189
188
142
79
54
45
45
50
58
57
54
60
56
52
55
59
63
58
55
55
59
67
72
73
69
72
71
77
66
60
57
75
83
73
66
72
65
51
55
56
55
59
68
73
74
79
84
80
76
79
77
71
63
58
63
80
87
100
129
161
183
200
200
204
204
204
205
204
204
204
204
204
204
204
204
203
204
203
203
203
203
203
179
179
179
180
180
180
180
181
182
182
183
183
184
185
185
186
187
187
189
189
148
77
51
46
40
45
51
46
47
49
56
53
55
61
65
68
64
66
67
74
80
81
74
77
76
80
71
74
69
83
95
87
73
70
76
78
79
81
77
69
73
77
80
83
84
81
84
79
69
72
65
64
72
98
107
118
107
128
165
187
202
202
204
205
205
204
204
204
204
204
204
204
204
204
204
204
204
203
203
203
179
179
179
179
180
180
180
180
181
181
182
183
184
185
185
186
186
187
188
189
178
98
57
50
48
46
47
52
50
44
39
48
57
64
69
75
75
77
77
82
85
89
81
82
86
81
85
91
95
106
120
119
107
89
87
91
91
85
74
65
63
69
71
77
87
93
80
79
84
72
66
78
78
90
133
151
148
111
181
196
198
201
204
204
205
204
204
204
204
204
204
204
204
204
203
204
204
203
203
203
178
179
179
179
180
179
180
180
181
181
182
183
183
184
185
186
186
186
188
189
186
129
63
54
51
46
49
48
47
47
46
53
61
68
78
81
81
81
87
90
92
95
97
95
94
97
112
122
122
130
132
131
128
122
110
114
122
105
95
79
68
64
68
75
85
89
93
98
78
70
80
95
77
82
125
151
160
124
171
192
203
205
205
205
205
205
205
204
204
204
204
204
204
204
203
204
204
204
204
203
178
179
179
179
179
179
180
180
180
180
181
182
182
183
184
185
186
186
187
188
189
158
83
52
46
37
34
38
40
38
43
52
64
74
83
86
88
91
95
102
107
112
116
122
125
129
138
142
144
141
145
143
146
145
147
141
135
123
116
105
101
94
87
82
84
85
83
83
86
92
97
85
79
84
112
139
159
139
188
204
206
206
205
205
205
205
205
204
204
204
204
204
204
204
204
204
204
204
203
203
178
178
178
178
179
179
179
179
180
180
180
181
182
182
183
184
185
186
187
188
188
180
108
60
56
41
34
36
29
27
29
42
79
89
95
98
98
98
104
108
114
126
133
138
145
151
155
157
155
152
152
154
160
163
163
167
171
166
160
147
135
133
131
128
123
113
90
87
87
79
69
69
82
93
104
127
153
146
193
205
206
206
205
205
205
205
205
205
204
204
204
204
204
204
204
204
204
204
204
203
178
178
178
178
178
178
178
179
179
180
180
180
181
182
183
184
184
186
186
186
188
187
141
65
58
51
39
36
25
24
25
38
86
100
107
106
98
97
99
101
106
116
124
137
145
149
154
162
160
157
158
164
168
168
165
160
163
161
160
148
139
147
154
163
159
148
97
71
71
69
69
73
83
95
107
115
124
168
193
203
206
206
206
205
205
205
205
205
204
204
204
204
204
204
204
204
204
204
204
204
177
178
178
178
178
178
178
178
179
179
179
180
180
181
182
183
184
184
186
186
187
188
167
73
55
58
43
35
24
26
28
47
92
106
104
95
81
70
64
58
60
69
88
105
128
142
147
154
154
157
160
162
163
160
150
129
116
107
106
113
117
136
150
161
166
164
118
77
69
73
74
78
83
91
91
107
130
166
205
205
206
206
206
205
205
205
205
205
205
204
204
204
204
204
204
204
204
204
204
204
177
177
178
177
178
178
178
178
178
178
178
179
180
180
181
182
183
184
184
186
187
188
181
101
52
58
51
34
31
31
35
66
101
96
90
85
85
84
72
65
62
69
71
88
107
121
132
137
146
155
162
160
149
143
136
116
106
106
98
124
144
158
161
155
153
168
138
80
64
72
78
82
89
101
114
130
152
199
206
206
206
206
206
206
205
205
205
205
205
205
204
204
204
204
204
204
204
204
204
203
178
177
177
177
177
177
177
177
178
178
178
178
179
179
180
182
183
184
184
185
186
187
188
148
62
55
53
44
33
31
49
90
108
92
77
85
94
105
112
108
100
86
77
86
97
101
111
119
131
153
163
164
154
147
139
130
104
105
121
138
147
147
145
145
154
166
152
92
60
67
77
76
85
118
133
182
197
205
206
206
206
206
206
205
205
205
205
205
205
205
205
205
204
204
204
204
204
204
204
204
177
177
177
177
177
176
177
177
177
177
178
178
178
179
180
181
181
182
183
184
185
186
188
181
115
53
54
46
41
38
65
104
112
88
109
116
121
125
130
132
127
119
108
86
79
82
91
105
126
153
172
179
170
162
134
115
127
134
141
157
169
178
181
183
161
152
159
101
71
60
58
83
111
139
176
202
203
205
205
206
206
206
206
205
205
205
205
205
205
205
204
204
205
204
205
204
204
204
204
204
177
177
177
177
177
176
176
176
176
177
177
177
178
179
179
179
180
181
182
184
185
185
187
188
167
71
52
49
38
39
74
110
100
117
116
108
96
86
83
85
76
76
72
76
72
64
78
106
123
152
176
187
174
133
113
103
76
71
79
106
131
143
168
182
187
169
157
110
79
69
84
128
169
187
196
201
205
205
205
206
206
206
205
205
205
205
205
205
205
205
205
204
204
205
205
204
204
204
204
204
177
176
177
177
176
176
176
176
176
176
177
177
178
178
179
179
179
181
182
183
184
185
186
188
186
122
71
54
68
81
71
101
107
119
107
79
67
57
58
62
75
88
83
49
65
69
54
77
101
125
138
142
136
126
109
71
80
84
64
94
95
118
137
172
184
186
149
111
76
94
149
188
199
202
205
203
205
206
206
206
206
206
205
205
205
205
205
205
205
205
205
205
205
204
204
204
204
204
204
204
177
176
176
177
176
176
175
176
176
176
177
177
177
177
178
178
179
180
181
182
183
184
185
187
189
167
116
95
70
109
60
53
118
114
90
65
47
74
86
75
88
97
96
66
72
77
68
99
122
155
166
169
106
151
105
82
85
93
93
112
140
85
108
147
174
181
157
88
98
153
168
199
204
204
205
205
206
206
205
206
206
206
205
205
205
205
206
205
205
205
205
205
205
205
205
204
204
204
204
204
177
177
176
176
176
176
175
175
176
176
176
177
177
177
178
178
179
179
180
182
183
184
185
186
187
157
89
104
91
66
91
101
119
105
85
83
85
83
83
84
85
86
89
86
83
82
58
87
126
171
178
141
115
156
120
110
96
99
114
134
150
152
140
142
167
182
170
92
131
177
170
195
205
205
205
205
206
205
205
206
205
206
205
205
205
205
205
205
205
205
205
205
205
205
205
204
204
204
204
204
176
176
176
177
176
176
175
175
175
175
175
176
176
176
177
178
178
179
180
181
182
183
184
185
186
160
89
96
108
81
101
114
117
110
105
101
97
97
95
91
91
97
96
89
91
93
56
83
130
171
188
134
107
167
139
121
120
120
124
142
157
161
165
170
173
187
166
132
164
183
155
201
204
205
204
205
205
205
205
206
206
205
205
205
205
205
205
205
205
205
205
205
205
205
205
205
204
204
204
204
176
176
176
176
176
176
176
175
175
175
176
176
176
176
177
177
178
179
180
181
182
182
184
184
185
167
90
99
113
95
107
128
110
119
116
114
115
119
116
106
103
101
98
102
104
77
48
105
138
169
186
160
111
177
168
147
133
135
142
151
166
177
181
182
183
189
163
159
179
170
175
204
204
205
205
205
205
205
205
206
206
205
205
205
206
205
205
206
205
205
205
205
205
205
205
205
204
204
204
204
176
176
176
176
176
176
176
175
175
175
175
175
176
176
177
177
178
179
180
181
182
182
183
184
184
179
103
99
120
90
119
133
111
121
120
118
118
118
115
110
110
115
119
115
107
82
87
120
143
168
186
187
159
170
177
171
159
152
154
156
163
174
180
185
188
189
162
170
183
163
196
204
204
204
204
205
205
205
205
206
206
206
206
205
206
205
205
206
205
205
205
205
205
205
205
205
204
205
204
204
175
176
176
175
176
176
175
175
175
174
175
175
175
176
177
177
178
179
180
180
181
182
182
183
184
185
137
106
104
86
128
135
117
114
123
120
120
119
120
125
128
125
122
114
101
80
108
128
147
170
189
196
185
157
176
173
171
169
167
163
163
171
179
186
191
165
187
170
180
182
202
204
204
204
205
205
205
205
205
206
206
206
206
206
206
206
206
205
206
205
205
205
205
205
205
205
205
204
204
204
175
175
176
175
175
175
175
175
175
175
175
175
176
176
177
177
178
178
179
180
180
181
181
182
184
185
168
111
84
109
131
135
129
114
118
121
126
127
128
130
130
125
119
106
85
106
116
124
140
169
195
203
199
181
155
171
165
166
166
167
170
177
184
190
177
173
193
183
167
199
204
204
204
205
205
205
205
205
206
206
206
205
206
206
206
206
206
206
205
206
206
205
205
205
205
205
205
205
204
204
175
175
175
175
176
175
175
175
175
175
175
175
176
176
177
177
178
178
179
179
180
180
181
182
183
184
183
123
79
108
130
136
130
128
114
113
127
129
132
132
131
125
108
89
96
115
115
111
125
161
191
189
194
192
167
147
164
166
167
170
173
180
187
168
173
196
193
195
158
193
204
204
204
204
205
205
205
205
206
206
206
205
206
206
206
206
206
206
206
206
206
205
205
205
205
205
205
205
205
205
175
175
175
175
175
175
175
174
175
175
175
176
176
177
177
177
178
178
179
178
179
180
181
182
182
184
185
145
90
97
126
135
127
125
125
120
108
109
115
116
110
106
105
95
95
119
122
90
111
153
173
138
180
189
162
164
143
142
158
165
165
152
155
181
194
197
193
195
148
181
203
204
204
204
205
205
205
205
206
206
206
206
206
206
206
206
206
206
206
206
206
205
206
205
205
205
205
205
205
205
175
175
175
175
174
175
175
176
175
175
175
176
176
176
177
177
177
178
178
178
179
179
180
181
181
183
185
168
120
91
122
134
127
126
125
124
126
127
128
127
127
122
112
92
84
120
68
69
109
155
161
110
142
168
158
166
164
162
157
154
168
183
189
191
193
196
193
179
170
195
203
204
204
204
205
205
205
205
206
206
206
206
206
206
206
206
206
206
206
206
206
206
205
205
205
205
205
205
205
204
175
176
175
174
175
175
175
175
175
175
176
176
176
176
177
177
178
177
178
178
178
179
179
180
181
182
185
181
135
112
119
134
126
124
125
126
127
129
128
128
128
124
113
100
83
83
92
125
156
153
178
180
163
157
166
172
164
165
171
173
182
186
189
192
195
196
196
184
192
203
204
204
204
204
205
205
205
205
206
206
206
206
206
206
206
206
206
206
206
206
206
205
205
205
205
205
205
205
205
205
175
175
176
175
175
176
175
175
175
175
176
176
176
176
176
177
177
177
177
178
178
179
179
180
180
182
184
185
148
107
107
132
125
125
124
125
127
130
130
129
130
121
114
111
104
95
99
136
178
142
180
196
184
176
178
176
170
164
174
180
184
187
190
195
196
196
194
195
203
204
204
204
204
204
205
205
205
206
206
206
206
206
206
206
206
206
206
206
206
206
206
205
206
205
206
205
205
205
205
205
175
175
174
175
175
175
175
175
176
175
176
176
176
176
176
177
177
177
177
177
178
178
179
180
180
181
183
185
158
113
107
129
125
124
124
126
127
130
129
129
127
120
117
117
114
113
115
144
181
141
165
196
190
180
179
178
176
169
170
182
188
188
190
195
195
194
195
191
202
204
204
204
204
205
205
205
205
206
206
206
206
206
206
206
206
206
206
206
206
206
206
206
206
205
205
205
205
205
205
205
175
175
175
175
175
176
176
176
176
176
176
176
176
176
177
176
177
177
177
178
178
178
179
179
180
181
183
185
171
117
98
119
127
123
124
127
127
129
129
128
123
120
122
125
127
128
127
145
169
144
148
188
189
185
183
183
183
176
167
181
189
191
192
195
195
194
189
196
202
204
204
204
204
205
205
205
205
206
206
206
206
206
206
206
206
206
206
206
206
206
206
206
205
205
205
205
205
205
205
205
175
175
174
175
175
176
176
176
176
176
176
176
176
176
176
176
177
177
177
177
178
178
179
179
180
181
182
184
185
162
141
156
128
123
122
126
126
127
127
125
123
122
129
131
131
128
125
133
143
153
156
164
177
189
192
191
190
180
174
175
190
191
194
195
196
196
169
192
202
203
204
204
204
205
205
205
206
206
206
206
206
206
206
206
206
206
206
206
206
206
206
206
206
206
205
205
205
205
205
205
175
174
175
175
175
175
176
176
176
176
176
176
176
176
176
176
177
177
177
177
178
179
179
179
180
181
182
184
185
187
188
178
129
123
120
122
122
124
125
123
127
123
125
124
118
112
118
127
129
136
152
156
162
167
179
190
190
181
182
179
190
191
193
196
196
197
198
201
203
203
204
204
205
206
205
206
206
206
206
206
206
206
206
206
206
206
206
206
206
206
206
206
206
205
206
205
205
205
205
205
175
175
175
175
175
176
176
176
176
176
176
175
175
175
175
176
176
177
177
177
178
178
179
179
180
181
182
183
185
186
187
183
132
124
121
121
122
123
123
127
131
113
100
91
91
90
99
109
112
113
119
132
143
146
153
162
172
172
181
184
191
192
195
195
199
199
202
202
203
203
204
204
205
205
205
206
206
206
207
206
206
206
206
206
206
206
206
206
206
206
206
206
206
206
206
205
205
205
205
205
175
175
175
175
175
176
176
176
175
176
176
175
175
175
175
175
176
176
177
177
178
178
179
179
180
180
182
183
184
186
187
188
142
125
121
120
119
123
123
132
127
81
62
80
93
109
116
134
148
144
142
148
155
155
144
122
110
145
171
184
191
192
194
196
199
200
202
202
203
203
204
204
205
205
205
206
206
207
206
206
207
206
206
206
206
206
206
206
206
206
206
206
206
206
206
206
205
205
205
205
175
175
175
175
175
175
175
175
175
175
175
175
175
175
175
175
175
176
176
177
177
177
178
178
180
180
182
182
183
185
186
188
154
125
121
122
120
122
123
132
129
109
102
99
102
101
107
132
147
153
158
165
173
175
171
165
148
146
168
184
190
190
193
197
199
200
202
202
203
203
204
204
205
205
205
206
207
207
206
206
206
206
206
206
206
206
206
206
206
206
206
206
206
205
206
206
205
205
205
205
174
175
175
175
175
175
175
175
175
175
174
175
174
174
174
175
175
176
176
176
177
177
177
178
179
180
181
182
183
184
186
187
170
126
122
123
122
121
123
129
129
122
118
115
117
120
120
129
133
137
149
164
176
185
187
188
178
169
174
185
191
191
193
197
198
200
201
202
203
204
204
204
205
205
205
206
206
206
206
206
206
206
206
206
206
206
206
206
206
206
206
206
206
206
206
206
206
205
205
205
175
175
174
175
175
175
175
175
174
174
174
174
174
175
174
174
175
175
176
176
177
177
177
178
179
180
180
181
182
183
185
187
183
130
121
121
122
120
122
121
122
122
123
121
127
133
134
145
143
142
144
166
179
186
186
185
183
180
181
186
192
194
195
197
197
199
201
201
202
204
204
205
205
205
205
206
206
206
206
206
206
206
206
206
206
206
206
206
206
206
206
206
206
206
206
205
205
205
205
205
175
175
174
175
175
175
175
175
174
174
174
174
174
174
174
175
175
176
176
176
176
177
177
178
179
180
180
181
182
183
184
186
187
146
122
121
122
122
119
118
118
119
119
122
131
139
144
151
154
154
155
166
176
182
183
182
183
181
183
186
192
192
194
196
196
199
200
201
202
203
204
205
205
205
205
206
206
206
206
206
206
206
206
206
206
206
206
206
206
206
206
206
206
206
206
206
205
205
205
205
175
175
174
175
175
175
175
175
174
174
174
174
174
174
174
174
175
175
176
176
176
177
177
178
179
180
180
181
182
183
184
186
186
152
123
121
121
121
120
117
115
115
117
122
131
140
148
149
152
159
162
166
174
179
180
179
180
182
185
187
191
192
189
190
196
199
200
201
202
203
203
204
205
205
206
206
206
206
206
206
206
206
206
206
206
206
206
206
206
206
206
206
206
205
206
205
205
205
205
205
174
174
174
174
175
175
174
174
174
174
174
174
174
174
174
174
175
176
176
176
176
177
177
178
179
180
181
181
182
183
184
185
186
153
125
118
118
117
118
118
113
113
116
121
132
136
139
141
154
170
171
168
170
175
178
180
180
183
185
187
186
188
181
189
197
198
200
200
202
203
203
204
205
205
206
206
206
206
206
206
206
206
206
206
206
206
206
206
206
206
206
206
206
206
206
205
205
205
205
205
174
174
174
174
174
174
174
174
174
174
174
174
174
173
173
174
175
175
175
176
176
177
178
179
179
180
180
181
182
183
184
185
186
153
126
118
115
115
117
116
114
113
115
121
130
132
134
140
154
166
172
176
176
178
178
182
182
183
186
186
185
182
180
187
195
197
199
200
201
202
203
204
204
205
206
206
206
206
206
206
206
206
206
206
206
206
206
206
206
206
206
206
206
206
206
205
206
205
205
205
174
174
174
174
174
174
174
174
174
174
173
173
173
173
173
174
175
175
175
175
176
177
177
178
179
180
180
181
182
183
184
185
186
152
125
118
112
111
113
115
115
116
117
120
127
133
133
143
152
158
172
180
177
180
181
183
185
184
184
179
175
175
186
188
195
197
199
199
200
202
203
204
204
204
206
206
206
206
206
206
206
206
206
206
206
206
206
206
206
206
206
206
206
206
206
205
205
205
205
205
174
173
173
173
173
174
173
173
174
173
173
173
173
172
173
173
174
174
175
175
175
176
177
178
179
179
180
180
181
182
183
185
186
151
126
118
113
105
107
112
113
115
118
122
130
136
135
150
155
155
165
178
177
179
175
180
181
182
174
166
166
183
190
187
194
196
197
199
200
201
203
204
204
204
206
206
206
206
206
206
206
206
206
206
206
206
206
206
206
206
206
206
206
206
206
205
206
205
205
203
173
173
173
173
173
173
173
173
173
173
172
172
172
172
172
172
173
174
174
174
175
175
176
176
177
179
179
180
181
182
183
184
185
149
128
120
115
109
100
105
110
112
117
123
131
137
141
151
156
158
163
168
174
172
172
177
176
171
158
162
178
185
192
188
193
195
197
199
200
201
202
204
204
204
206
206
206
206
206
206
206
206
206
206
206
206
206
206
206
206
206
206
206
206
206
205
205
205
205
205
173
172
173
172
172
173
173
172
172
172
172
171
171
171
171
171
172
173
173
173
174
174
174
176
177
177
178
178
179
180
182
183
184
147
127
120
116
110
103
100
102
102
111
121
130
137
142
146
151
155
158
162
166
163
166
168
163
150
157
175
183
185
192
187
192
194
196
198
200
201
202
204
205
205
206
207
207
206
206
206
206
206
206
206
206
206
206
206
205
206
205
206
206
206
206
206
205
205
205
205
172
173
172
172
172
172
172
171
171
171
171
170
170
170
170
170
171
171
172
172
172
173
173
174
175
175
176
177
177
178
180
181
182
144
127
122
116
112
107
100
98
98
103
112
123
131
138
140
142
141
144
147
148
147
151
150
149
157
173
182
187
191
193
187
191
193
195
197
199
201
201
203
204
205
206
206
207
207
206
206
206
206
206
206
206
206
206
206
205
205
206
205
206
206
206
205
205
205
205
205
172
172
171
171
171
171
172
171
170
170
170
170
169
169
170
170
170
170
171
171
171
172
172
173
173
174
174
175
176
177
178
180
181
141
127
123
119
113
109
102
100
99
100
104
109
116
121
127
128
126
128
131
133
138
145
154
157
164
178
186
188
192
193
186
190
192
194
197
198
201
202
203
204
205
205
206
207
206
206
207
206
206
206
206
206
206
206
206
206
206
206
206
206
206
206
205
205
205
205
205
172
172
171
171
171
171
171
171
170
170
170
170
170
169
169
169
169
170
170
170
171
171
172
172
173
173
174
175
176
176
178
179
180
139
127
125
122
117
112
107
102
101
102
106
108
112
117
120
125
128
132
136
145
151
155
159
163
170
180
185
188
191
192
148
153
176
190
196
198
201
202
202
204
205
205
206
207
207
206
206
207
206
206
206
206
206
206
206
206
206
206
205
205
205
206
205
205
205
205
205
171
171
171
171
171
171
170
170
170
170
170
170
169
169
169
169
169
169
170
170
171
171
171
172
172
173
173
174
175
175
169
155
137
129
126
126
123
122
117
113
106
103
103
107
112
117
121
125
130
136
142
154
161
158
161
168
172
175
181
185
189
193
190
91
49
83
121
154
185
198
201
202
204
205
206
206
207
207
207
206
206
206
206
206
206
206
206
206
205
205
206
206
205
205
206
206
205
205
205
205
171
171
171
171
170
170
170
169
169
169
169
169
169
168
168
168
168
169
169
169
170
170
171
171
171
172
173
171
153
116
72
39
48
122
125
126
124
125
123
117
108
107
107
107
112
119
127
134
140
148
156
168
175
174
175
178
181
180
182
185
189
192
190
92
21
22
25
46
97
142
177
198
204
205
206
206
207
207
207
206
206
206
206
206
206
206
206
206
205
205
206
206
205
205
206
205
205
205
205
205
171
170
170
170
170
170
169
169
169
168
168
168
167
167
168
168
168
168
168
169
169
170
170
171
171
171
155
106
50
23
19
18
47
120
126
127
126
128
127
122
114
108
107
109
112
117
127
139
147
155
164
174
179
180
183
180
180
181
181
183
188
190
190
97
20
21
19
23
28
36
72
133
183
204
206
206
206
207
207
207
207
206
206
206
206
206
206
206
205
205
205
205
205
205
205
205
205
205
205
205
170
169
169
169
169
169
168
168
168
167
167
167
167
167
167
167
167
167
168
168
168
169
169
169
166
128
62
26
22
20
17
16
46
118
125
128
128
127
128
125
118
111
108
109
112
117
128
141
153
162
169
176
182
183
184
180
181
183
182
182
188
190
190
107
20
19
18
21
26
26
23
34
87
155
195
206
207
207
207
207
206
206
206
206
206
206
206
205
205
205
205
205
205
205
205
205
205
205
205
205
169
169
169
168
168
168
167
166
167
166
165
166
166
166
167
167
167
167
167
167
168
168
168
160
101
38
25
21
20
18
16
16
62
117
124
127
129
130
130
128
121
112
111
108
110
117
124
141
158
169
176
182
183
183
183
184
181
182
183
182
186
190
190
116
20
19
19
20
23
24
21
22
27
47
113
181
205
207
207
206
206
206
206
206
206
206
206
206
205
205
206
205
205
205
205
205
205
205
205
205
169
168
168
167
167
166
166
166
166
165
164
165
165
165
166
166
166
166
166
167
167
167
160
94
33
26
23
21
19
18
16
17
81
114
122
127
130
131
131
130
125
117
112
110
112
117
120
130
157
174
180
183
182
184
182
182
182
182
180
184
189
190
191
124
37
25
18
20
22
22
21
20
21
23
32
79
161
203
207
207
206
206
206
206
206
206
206
206
206
205
205
205
205
205
205
205
205
205
205
205
168
167
167
166
166
165
165
165
165
164
164
164
165
164
165
165
165
165
165
165
166
164
106
34
28
23
21
20
19
16
14
43
96
113
119
126
129
132
134
132
128
122
115
109
113
118
119
117
148
180
186
183
183
184
182
184
183
181
181
184
188
189
190
130
39
47
30
18
21
21
21
20
20
21
24
27
59
148
202
207
206
207
206
206
206
206
206
206
206
205
205
205
205
205
205
205
205
205
205
205
167
166
166
165
166
165
164
164
163
163
164
164
163
164
164
164
164
164
164
164
165
134
43
30
24
22
21
18
15
13
24
77
100
110
117
125
129
131
136
135
132
126
120
113
113
119
121
115
136
171
179
179
182
182
184
184
183
179
181
184
188
189
189
140
28
41
52
25
16
18
19
20
21
21
21
22
26
52
141
199
207
207
206
206
207
206
206
206
205
205
205
205
205
205
205
205
205
205
205
205
165
165
165
165
164
163
163
164
163
163
163
163
163
163
162
163
163
163
163
163
159
77
32
28
23
18
16
17
16
17
62
93
100
108
116
122
127
132
136
138
136
130
126
119
115
120
126
126
130
153
173
177
183
185
185
184
183
181
182
185
188
189
188
155
35
32
49
51
21
18
17
18
20
21
20
20
21
24
41
125
197
207
206
206
206
206
206
206
205
205
205
205
205
205
205
205
205
205
205
205
164
164
163
163
162
162
162
162
162
162
162
162
162
162
162
162
162
162
162
163
141
45
32
25
17
15
17
20
23
49
84
100
101
107
115
120
124
129
137
140
139
135
132
124
121
126
131
135
139
150
163
173
181
184
184
183
182
181
183
186
188
188
187
159
60
27
44
61
46
30
24
19
17
18
19
19
19
20
23
36
124
198
207
206
206
206
206
206
206
205
205
205
205
205
205
205
205
205
205
205
164
163
162
162
162
161
161
161
161
161
161
161
161
161
161
161
161
162
162
159
107
36
33
20
15
16
18
21
26
57
90
104
102
106
113
118
123
129
135
140
143
140
136
130
128
131
137
140
145
153
162
171
179
183
183
182
180
180
184
187
188
187
182
148
72
25
42
60
59
50
28
25
22
18
16
17
18
19
20
24
38
125
199
207
207
206
206
206
205
206
205
205
205
205
205
205
205
205
205
204
163
162
161
161
161
161
161
160
160
160
160
160
160
160
160
160
161
161
159
118
55
35
34
21
15
17
19
21
26
33
80
104
103
106
112
117
120
127
135
141
147
146
142
138
133
135
139
144
149
156
162
169
176
182
182
179
178
180
184
185
185
182
172
130
69
30
44
58
60
57
37
29
27
23
19
16
16
17
18
19
24
39
129
201
206
206
206
206
206
205
205
205
205
205
205
204
204
204
204
204
162
161
160
160
160
160
160
159
160
160
160
160
160
160
160
159
159
160
142
60
40
34
33
28
16
18
21
22
25
28
44
93
102
107
110
116
117
123
131
141
147
150
149
144
139
141
144
147
151
158
164
171
176
180
179
175
177
180
184
183
179
174
152
106
61
37
48
56
58
58
43
38
47
30
22
20
18
16
16
18
19
25
45
146
205
206
206
205
205
205
205
205
204
205
204
204
204
204
204
204
161
161
160
160
160
160
159
159
159
159
159
159
159
159
159
159
159
160
138
50
37
33
30
35
19
17
20
22
24
26
29
51
93
108
113
114
116
120
128
138
145
153
154
150
145
146
147
150
155
159
163
169
174
177
175
172
175
179
180
177
170
156
120
89
52
40
48
49
53
53
40
36
55
46
25
21
20
18
16
16
17
19
29
66
181
206
206
206
205
205
205
205
204
204
205
204
204
204
204
204
160
160
159
159
159
159
159
159
159
159
158
158
158
158
158
158
158
159
155
97
36
31
30
33
31
18
19
22
23
25
27
30
60
101
112
114
116
116
125
134
143
154
157
155
150
149
150
151
156
160
164
168
172
174
172
170
171
173
171
167
150
125
100
71
43
44
46
45
46
45
33
41
55
50
34
24
19
19
18
17
16
16
22
36
114
202
206
205
205
205
205
204
204
204
204
204
204
204
204
204
160
160
160
159
159
159
158
158
158
158
158
158
158
158
158
158
158
158
156
134
51
29
28
28
35
31
20
21
22
25
25
28
32
70
105
114
116
117
123
130
141
153
162
161
155
152
151
155
156
161
163
164
168
170
167
164
164
164
156
143
119
101
80
46
51
44
41
41
42
38
29
49
55
46
36
27
18
16
17
18
17
16
17
29
60
178
206
206
205
205
205
205
205
204
205
204
204
204
204
204
160
159
159
158
159
158
158
158
157
157
157
157
157
157
157
157
157
142
97
56
27
24
27
26
28
32
31
22
21
22
24
26
29
35
75
109
115
113
119
127
137
152
161
163
160
158
155
156
156
159
160
163
165
161
159
157
154
148
130
110
96
76
43
39
40
38
36
35
34
25
39
52
49
40
32
23
16
13
15
17
17
16
17
27
50
153
206
206
205
205
205
205
205
204
204
204
204
204
204
204
159
159
158
158
158
158
157
157
157
156
157
156
156
157
156
155
144
83
32
25
23
21
22
24
24
26
31
34
32
30
26
24
25
28
36
86
110
115
119
122
133
148
158
164
164
164
160
157
153
152
153
155
157
154
149
145
136
117
100
86
59
36
38
39
36
32
32
31
24
33
48
50
43
37
28
23
19
17
16
15
15
16
25
43
58
159
206
206
205
205
205
205
205
204
204
204
204
204
204
204
158
158
157
157
157
157
156
157
157
156
155
155
155
155
153
130
76
35
29
24
21
21
19
19
22
23
25
27
31
38
38
35
29
30
33
40
84
110
118
120
129
143
155
164
168
168
167
163
155
148
146
145
142
139
129
120
107
91
67
39
34
37
37
34
31
31
28
22
27
44
49
45
39
32
25
22
20
20
20
17
13
20
36
52
80
186
206
205
205
205
205
205
204
204
204
204
204
204
204
203
157
157
157
157
156
156
155
155
155
155
154
154
154
144
106
54
34
28
27
26
22
20
19
19
17
18
20
22
24
29
34
39
36
35
38
38
44
90
115
120
126
137
152
164
173
174
170
165
157
148
140
134
128
121
112
99
79
45
32
33
34
34
33
30
30
27
21
24
39
46
44
39
35
29
25
24
23
23
22
17
17
35
51
63
123
202
205
205
205
205
205
205
204
204
204
204
204
204
204
203
156
156
155
156
155
155
154
154
153
153
153
150
127
78
39
32
29
26
26
25
24
22
19
19
19
15
15
17
19
34
48
67
92
46
33
34
36
45
79
106
123
130
145
160
171
175
172
165
154
141
130
122
113
104
86
53
31
31
31
34
33
32
32
32
29
21
21
36
46
43
38
36
34
29
28
27
27
26
20
31
45
55
60
89
178
205
205
205
205
204
205
204
204
204
204
204
204
204
203
203
155
155
154
154
154
153
152
152
152
152
141
99
52
35
31
31
28
26
25
25
24
24
22
19
19
19
15
13
14
19
25
45
41
51
25
26
28
31
33
38
67
98
131
157
170
174
169
156
144
130
118
108
93
66
34
31
31
31
32
32
30
30
30
28
22
24
36
45
50
46
42
41
38
34
32
31
33
38
44
54
56
59
68
143
203
205
205
205
205
205
205
204
204
204
204
204
204
204
203
203
153
153
153
152
152
152
151
151
147
122
73
40
35
32
29
29
28
26
25
25
24
24
23
21
20
19
18
16
14
15
22
44
39
20
21
23
25
26
28
30
32
36
51
106
156
168
160
145
133
116
94
62
34
30
33
33
32
30
29
27
25
24
23
28
35
39
46
45
41
38
36
31
39
46
47
51
55
56
56
56
56
51
45
110
173
200
205
205
205
205
205
205
204
204
204
204
204
204
203
203
151
151
150
150
149
149
149
141
100
51
36
33
32
30
29
29
28
27
26
26
25
24
24
23
23
20
19
18
18
15
18
41
40
18
18
19
20
23
25
27
29
30
33
37
59
124
146
125
96
60
32
31
30
31
31
32
32
29
27
22
21
26
31
35
38
41
46
47
48
45
43
47
49
52
56
56
53
52
50
43
37
32
34
41
63
124
177
200
205
205
205
205
204
204
204
204
204
204
203
203
149
149
147
147
147
145
128
78
41
35
33
33
32
31
29
29
27
27
26
26
26
25
25
23
23
23
21
20
19
18
20
39
39
16
18
21
23
20
19
19
24
29
32
31
28
33
71
43
34
31
30
30
30
30
30
29
30
30
30
30
32
33
34
35
36
40
45
47
49
50
51
52
54
53
51
44
38
34
28
29
31
32
36
37
41
45
67
120
171
198
204
205
205
205
204
204
204
203
203
203
147
146
145
145
141
105
56
37
34
32
32
30
31
30
29
29
28
28
27
26
26
26
25
24
23
23
23
21
20
20
21
37
41
20
19
20
23
26
25
23
21
21
22
22
26
31
33
33
34
33
34
33
33
33
34
34
35
34
33
33
33
34
36
37
39
42
45
45
47
47
46
43
38
32
28
25
27
28
30
33
34
34
37
37
40
40
41
45
58
107
167
201
205
205
204
204
203
204
203
203
145
144
143
123
77
42
34
33
31
30
31
30
31
29
29
28
28
28
28
26
26
26
26
25
25
24
23
22
21
21
22
32
40
23
24
23
23
25
25
27
26
25
23
24
26
28
29
30
30
30
32
32
32
31
31
31
32
35
38
37
34
34
35
37
39
39
35
33
30
29
27
25
26
25
28
29
29
31
33
33
35
36
37
38
39
40
41
41
42
47
60
126
187
204
205
204
204
204
203
203
143
137
102
52
35
33
31
31
30
30
31
30
30
29
29
29
28
28
27
27
27
27
26
26
25
24
24
22
22
22
22
29
41
24
25
26
28
28
27
27
27
27
26
26
25
24
23
22
22
21
21
20
20
19
19
19
19
23
33
43
38
34
32
30
25
24
26
26
27
28
28
29
29
30
32
33
32
34
35
35
36
36
37
39
38
39
40
39
42
42
46
51
90
167
201
204
204
204
203
203
125
77
40
34
32
31
29
30
30
30
30
31
30
29
29
28
28
29
28
27
26
28
27
26
26
25
24
23
22
23
23
27
39
25
23
25
27
26
28
27
28
28
31
33
33
30
29
27
25
23
22
20
19
17
16
14
13
19
36
39
38
26
24
25
26
26
28
30
30
32
32
32
32
32
34
35
33
34
36
36
37
37
39
39
39
39
39
40
41
42
43
45
49
67
140
195
204
204
203
203
52
35
31
30
29
30
29
29
30
30
30
30
31
29
29
28
28
28
27
27
27
26
27
27
26
26
24
24
22
22
23
26
38
30
25
26
26
26
28
28
27
27
27
31
32
32
30
28
25
24
23
21
20
18
17
15
13
30
46
34
27
28
28
28
29
29
32
34
34
35
34
34
34
34
36
36
36
35
38
37
38
39
38
39
39
39
40
40
41
41
43
44
45
49
56
113
185
203
203
203
33
31
30
30
30
29
30
30
30
29
29
30
30
30
30
30
30
28
28
28
28
28
27
26
26
26
25
24
23
23
23
25
33
38
26
27
28
29
31
31
31
31
32
33
33
33
32
30
28
26
25
22
21
20
18
15
15
37
40
35
30
31
31
32
32
33
34
35
35
37
36
36
36
39
39
37
37
38
40
40
40
39
38
40
40
40
41
40
41
41
43
44
44
45
47
54
97
179
203
203
30
30
29
30
31
29
29
29
30
30
30
29
29
29
29
29
29
28
28
27
27
27
27
26
27
26
26
24
24
23
24
26
28
41
27
27
28
29
31
31
32
32
33
33
33
33
32
30
29
27
27
25
22
21
19
16
18
42
38
38
33
31
32
34
35
34
37
37
37
38
38
39
37
38
39
39
39
39
40
42
41
40
39
41
40
40
39
39
40
41
41
42
43
43
44
49
54
91
179
203
30
29
29
30
29
29
29
30
30
30
30
30
30
28
30
29
29
28
28
27
28
27
26
27
27
26
26
25
24
23
24
26
26
42
29
28
29
30
32
31
31
33
34
34
33
33
32
31
29
28
27
26
23
21
19
16
23
46
41
38
32
33
33
34
35
36
37
39
38
39
39
39
38
39
40
40
39
38
43
43
44
42
39
39
41
40
41
39
39
39
40
42
43
43
44
47
49
54
97
187
29
29
29
29
29
30
29
30
30
32
31
31
30
30
29
29
28
28
28
28
28
28
27
27
27
27
26
26
25
24
25
26
26
43
31
29
29
30
31
31
31
33
33
34
33
33
32
31
31
29
28
26
23
21
19
17
26
46
44
40
33
34
34
33
36
36
37
39
39
38
40
39
40
40
41
40
40
40
42
44
43
40
38
38
40
41
42
39
39
39
39
39
43
43
44
46
47
49
55
115
30
29
29
30
30
31
30
31
30
31
31
31
30
30
29
29
29
28
30
29
28
28
27
27
27
27
26
26
25
25
24
25
28
39
33
28
30
29
31
31
31
32
33
35
33
34
32
32
30
29
28
26
24
21
19
17
30
45
45
42
33
33
35
36
37
38
39
39
39
37
39
40
41
42
41
39
39
37
39
42
43
39
37
39
41
40
40
39
38
38
38
39
40
43
43
43
46
48
51
58
